<?xml version="1.0" standalone="no"?>
<!DOCTYPE svg PUBLIC "-//W3C//DTD SVG 20010904//EN"
 "http://www.w3.org/TR/2001/REC-SVG-20010904/DTD/svg10.dtd">
<svg version="1.0" xmlns="http://www.w3.org/2000/svg"
 width="700.000000pt" height="700.000000pt" viewBox="0 0 700.000000 700.000000"
 preserveAspectRatio="xMidYMid meet">
<metadata>
Created by potrace 1.11, written by Peter Selinger 2001-2013
</metadata>
<g transform="translate(0.000000,700.000000) scale(0.100000,-0.100000)"
fill="#000000" stroke="none">
<path d="M3350 6668 c-80 -37 -197 -92 -260 -122 -63 -30 -144 -68 -180 -84
-106 -49 -323 -151 -350 -165 l-25 -13 -3 -902 c-1 -496 -4 -902 -7 -902 -3 0
-298 293 -655 650 -357 358 -653 650 -657 650 -5 0 -20 -35 -35 -78 -14 -42
-45 -129 -68 -192 -23 -63 -55 -153 -72 -200 -17 -47 -35 -96 -41 -110 -5 -14
-11 -29 -13 -35 -1 -5 -32 -90 -68 -188 -36 -98 -66 -184 -66 -190 0 -7 286
-298 635 -647 l635 -635 -929 -3 -929 -2 97 -208 c54 -114 112 -236 128 -272
43 -92 107 -227 169 -358 30 -63 54 -118 54 -123 0 -5 367 -10 907 -11 l907
-3 -656 -656 -656 -657 137 -50 c254 -94 776 -284 824 -300 l49 -16 636 638
637 637 3 -930 2 -929 58 28 c31 15 84 39 117 54 33 15 71 33 85 41 14 7 84
40 155 73 122 56 181 84 395 184 47 22 102 47 122 56 l37 17 1 903 c0 496 2
902 5 902 3 0 301 -295 662 -657 l656 -656 73 204 c40 112 120 337 178 499 58
162 106 299 106 305 0 5 -286 296 -635 645 l-635 635 929 5 928 5 -57 120
c-32 66 -88 185 -125 265 -37 80 -92 197 -121 260 -30 63 -75 161 -102 217
l-47 102 -905 3 -905 3 657 657 c362 362 654 659 649 662 -4 3 -138 52 -297
109 -159 58 -334 121 -389 141 -55 20 -148 53 -208 74 l-107 36 -640 -639
-640 -640 -2 931 -3 930 -145 -68z"/>
</g>
</svg>
