<?xml version="1.0" encoding="UTF-8"?><!DOCTYPE svg PUBLIC "-//W3C//DTD SVG 1.1//EN" "http://www.w3.org/Graphics/SVG/1.1/DTD/svg11.dtd"><svg xmlns="http://www.w3.org/2000/svg" xmlns:xlink="http://www.w3.org/1999/xlink"><symbol id="ac78-svg"/><symbol id="arrow-serif" viewBox="0 0 38 70"><path d="M13.4 67.6c0-9.5-4.2-15.9-12.7-19.1l1-1.7c4.3 1.6 7.4 4.2 9.4 7.7s3 7.1 3.1 10.7L30.3.3h1.3L15.4 65.2c2-3.7 4.8-7.2 8.5-10.7 3.7-3.5 8.1-6 13.1-7.7l.3 1.7C26.5 51.9 18.7 58.9 14 69.7h-.7l.1-2.1z"/></symbol><symbol id="facebook" viewBox="0 0 20 20"><path d="M20 18.9c0 .6-.5 1.1-1.1 1.1h-5.1v-7.7h2.6l.4-3h-3v-2c0-.9.2-1.5 1.5-1.5h1.6V3.1c-.3 0-1.2-.1-2.3-.1-2.3 0-3.9 1.4-3.9 4v2.2H8.1v3h2.6V20H1.1C.5 20 0 19.5 0 18.9V1.1C0 .5.5 0 1.1 0h17.8c.6 0 1.1.5 1.1 1.1v17.8z"/></symbol><symbol id="icon-plus" viewBox="0 0 30 30"><path vector-effect="non-scaling-stroke" d="M0 15h30M15 0v30"/></symbol><symbol id="instagram" viewBox="0 0 20 20"><path d="M17.6 0H2.4C1.1 0 0 1.1 0 2.4v15.3C0 18.9 1.1 20 2.4 20h15.2c1.3 0 2.4-1.1 2.4-2.4V2.4C20 1.1 18.9 0 17.6 0zm-3.2 3.1c0-.3.3-.6.6-.6h1.9c.3 0 .6.3.6.6V5c0 .3-.3.6-.6.6H15c-.3 0-.6-.3-.6-.6V3.1zM10 6.2c2.1 0 3.8 1.7 3.8 3.8 0 2.1-1.7 3.8-3.8 3.8-2.1 0-3.8-1.7-3.8-3.8 0-2.1 1.7-3.8 3.8-3.8zm8.1 11.3c0 .3-.3.6-.6.6h-15c-.3 0-.6-.3-.6-.6V8.1h2.5c-.4.5-.5 1.4-.5 1.9 0 3.3 2.7 6.1 6.1 6.1 3.4 0 6.1-2.7 6.1-6.1 0-.6-.1-1.4-.5-1.9h2.5v9.4z"/></symbol><symbol id="linkedin" viewBox="0 0 20 20"><path d="M.5 7.6h3.9V20H.5zm14.6-.1c-2.2 0-3.6 1.2-3.9 2.1v-2H6.8c.1 1 0 12.4 0 12.4h4.4v-6.7c0-.4 0-.7.1-1 .3-.7.9-1.5 2.1-1.5 1.5 0 2.2 1.1 2.2 2.8V20H20v-6.9c0-3.8-2.2-5.6-4.9-5.6zM2.4 1.8C.9 1.8 0 2.7 0 4c0 1.2.9 2.1 2.3 2.1 1.5 0 2.4-.9 2.4-2.1 0-1.3-.9-2.2-2.3-2.2z"/></symbol><symbol id="logo-basquedcc-horizontal-small-text" viewBox="0 0 538 143"><path d="M460.6 51.1c.4 0 .7.2 1 .6.3.3.4.7.4 1.3 0 .7-.2 1.2-.6 1.6-.4.4-1.1.6-1.9.6h-3.9v-7.8h3.9c.7 0 1.3.2 1.7.6.4.4.6.9.6 1.6 0 .5-.1.8-.4 1.1-.3.1-.6.3-.8.4zm-3.5-.6h2c.3 0 .6-.1.8-.3.2-.2.3-.4.3-.7 0-.3-.1-.5-.3-.7-.2-.2-.4-.3-.7-.3h-2.1v2zm2.1 3.2c.4 0 .6-.1.8-.3.2-.2.3-.4.3-.7 0-.3-.1-.5-.3-.7-.2-.2-.4-.3-.7-.3h-2.2v1.9h2.1zm9.8 1.4l-.7-1.7h-3.5l-.7 1.7h-1.7l3.4-7.8h1.5l3.4 7.8H469zm-2.4-6l-1.1 2.8h2.3l-1.2-2.8zm9.7-1.4c.6.4.9 1 1.1 1.7l-1.6.3c-.1-.4-.2-.7-.5-.9-.3-.2-.6-.3-1-.3s-.7.1-.9.3c-.2.2-.4.4-.4.7 0 .4.3.7.8.8l1.7.3c.6.1 1.2.4 1.5.8.4.4.5.9.5 1.5 0 .8-.3 1.4-.9 1.8-.6.4-1.3.7-2.3.7-.9 0-1.6-.2-2.2-.6-.6-.4-1-1-1.1-1.7l1.7-.3c.2.9.8 1.3 1.8 1.3.4 0 .8-.1 1-.3.2-.2.4-.4.4-.7 0-.2-.1-.4-.2-.5-.1-.1-.4-.2-.7-.3l-1.7-.3c-1.4-.3-2.1-1-2.1-2.2 0-.7.3-1.3.8-1.7.5-.4 1.3-.7 2.2-.7.9-.4 1.5-.2 2.1.3zm10.1 5.2c-.2.5-.6 1-1 1.4l1.4 1.6-1.2 1.1-1.7-1.9c-.4.1-.8.2-1.3.2-1.2 0-2.1-.4-2.9-1.2-.8-.8-1.2-1.8-1.2-2.9 0-1.1.4-2.1 1.2-2.9.8-.8 1.8-1.2 2.9-1.2s2.1.4 2.9 1.2 1.2 1.8 1.2 2.9c0 .6-.1 1.1-.3 1.7zm-5.6.1c.5.5 1.1.7 1.8.7s1.3-.2 1.8-.7c.5-.5.7-1.1.7-1.8s-.2-1.4-.7-1.9c-.5-.5-1.1-.7-1.8-.7s-1.3.2-1.8.7c-.5.5-.7 1.1-.7 1.9s.2 1.3.7 1.8zm14-1.5c0 1.1-.3 2-.9 2.7-.6.7-1.4 1-2.4 1s-1.9-.3-2.5-1c-.6-.7-.9-1.6-.9-2.7v-4.3h1.6v4.3c0 .7.2 1.2.5 1.6.3.4.8.6 1.4.6.5 0 1-.2 1.3-.6.3-.4.5-.9.5-1.6v-4.3h1.6v4.3zm7.5 3.6h-6v-7.8h5.9v1.4h-4.3v1.8h4v1.4h-4v1.8h4.4v1.4zm-43.9 6c1.3 0 2.3.4 3.1 1.1s1.2 1.7 1.2 2.8c0 1.2-.4 2.1-1.2 2.8s-1.8 1.1-3.1 1.1h-2.9v-7.8h2.9zm0 6.4c.8 0 1.5-.2 2-.7.5-.4.7-1.1.7-1.8s-.2-1.4-.7-1.8c-.5-.4-1.1-.7-2-.7h-1.3v5h1.3zM464 69v-7.8h1.6V69H464zm8.2-7.4c.6.4.9 1 1.1 1.7l-1.6.3c-.1-.4-.2-.7-.5-.9-.3-.2-.6-.3-1-.3s-.7.1-.9.3c-.2.2-.4.4-.4.7 0 .4.3.7.8.8l1.7.3c.6.1 1.2.4 1.5.8.4.4.5.9.5 1.5 0 .8-.3 1.4-.9 1.8-.6.4-1.3.7-2.3.7-.9 0-1.6-.2-2.2-.6-.6-.4-1-1-1.1-1.7l1.7-.3c.2.9.8 1.3 1.8 1.3.4 0 .8-.1 1-.3.2-.2.4-.4.4-.7 0-.2-.1-.4-.2-.5-.1-.1-.4-.2-.7-.3l-1.7-.3c-1.4-.3-2.1-1-2.1-2.2 0-.7.3-1.3.8-1.7.5-.4 1.3-.7 2.2-.7.8-.3 1.5-.1 2.1.3zm5.9 1V69h-1.6v-6.4h-2.6v-1.4h6.8v1.4h-2.6zm8.7 6.4l-2.6-2.9h-.8V69h-1.6v-7.8h3.8c.8 0 1.5.2 2 .7.5.5.8 1.1.8 1.8s-.2 1.2-.6 1.6-1 .7-1.6.8l2.6 2.9h-2zm-1.3-4.3c.4 0 .7-.1.9-.3.2-.2.3-.4.3-.8 0-.3-.1-.6-.3-.8-.2-.2-.5-.3-.9-.3h-2.2v2.1h2.2zm4.2 4.3v-7.8h1.6V69h-1.6zm8.4-1.8c.4-.3.7-.8.8-1.5l1.5.3c-.2 1-.6 1.8-1.3 2.3s-1.5.8-2.5.8c-1.2 0-2.1-.4-2.9-1.2-.8-.8-1.2-1.8-1.2-2.9 0-1.1.4-2.1 1.2-2.9.8-.8 1.8-1.2 2.9-1.2 1 0 1.8.3 2.5.8s1.2 1.3 1.4 2.2l-1.5.4c-.1-.6-.4-1.1-.8-1.5s-.9-.5-1.5-.5c-.7 0-1.3.2-1.8.7-.5.5-.7 1.1-.7 1.9s.2 1.4.7 1.9c.5.5 1.1.7 1.8.7.5.2 1 0 1.4-.3zm7-4.6V69h-1.6v-6.4h-2.6v-1.4h6.8v1.4h-2.6zm13.2-.4c.8.8 1.2 1.8 1.2 2.9 0 1.1-.4 2.1-1.2 2.9s-1.8 1.2-2.9 1.2-2.1-.4-2.9-1.2c-.8-.8-1.2-1.8-1.2-2.9 0-1.1.4-2.1 1.2-2.9.8-.8 1.8-1.2 2.9-1.2s2.1.4 2.9 1.2zm-1.2 4.7c.5-.5.7-1.1.7-1.8s-.2-1.4-.7-1.9c-.5-.5-1.1-.7-1.8-.7s-1.3.2-1.8.7c-.5.5-.7 1.1-.7 1.9s.2 1.4.7 1.8c.5.5 1.1.7 1.8.7s1.4-.2 1.8-.7zm5.3-2.4h3.8v1.4h-3.8v3h-1.6v-7.8h5.9v1.4h-4.3v2zm-61.6 16.6c.4-.3.7-.8.8-1.5l1.5.3c-.2 1-.6 1.8-1.3 2.3s-1.5.8-2.5.8c-1.2 0-2.1-.4-2.9-1.2-.8-.8-1.2-1.8-1.2-2.9 0-1.1.4-2.1 1.2-2.9.8-.8 1.8-1.2 2.9-1.2 1 0 1.8.3 2.5.8s1.2 1.3 1.4 2.2l-1.5.4c-.1-.6-.4-1.1-.8-1.5s-.9-.5-1.5-.5c-.7 0-1.3.2-1.8.7-.5.5-.7 1.1-.7 1.9s.2 1.4.7 1.9c.5.5 1.1.7 1.8.7.5.2 1 0 1.4-.3zm10.4-1.7c0 1.1-.3 2-.9 2.7-.6.7-1.4 1-2.4 1s-1.9-.3-2.5-1c-.6-.7-.9-1.6-.9-2.7v-4.3h1.6v4.3c0 .7.2 1.2.5 1.6.3.4.8.6 1.4.6.5 0 1-.2 1.3-.6.3-.4.5-.9.5-1.6v-4.3h1.6v4.3zm7.2 3.5h-5.6v-7.8h1.6v6.4h4v1.4zm3.8-6.4v6.4h-1.6v-6.4H478v-1.4h6.8v1.4h-2.6zm10.4 2.9c0 1.1-.3 2-.9 2.7-.6.7-1.4 1-2.4 1s-1.9-.3-2.5-1c-.6-.7-.9-1.6-.9-2.7v-4.3h1.6v4.3c0 .7.2 1.2.5 1.6.3.4.8.6 1.4.6.5 0 1-.2 1.3-.6.3-.4.5-.9.5-1.6v-4.3h1.6v4.3zm6.6 3.5l-2.6-2.9h-.8v2.9h-1.6v-7.8h3.8c.8 0 1.5.2 2 .7.5.5.8 1.1.8 1.8s-.2 1.2-.6 1.6-1 .7-1.6.8l2.6 2.9h-2zm-1.3-4.3c.4 0 .7-.1.9-.3.2-.2.3-.4.3-.8 0-.3-.1-.6-.3-.8-.2-.2-.5-.3-.9-.3h-2.2v2.1h2.2zm10.1 4.3h-6v-7.8h5.9v1.4h-4.3v1.8h4v1.4h-4v1.8h4.4v1.4zm10.1 0l-.7-1.7h-3.5l-.7 1.7h-1.7l3.4-7.8h1.5l3.4 7.8h-1.7zm-2.4-5.9l-1.1 2.8h2.3l-1.2-2.8zm12.2 5.9h-1.3l-4.3-5v5h-1.6v-7.8h1.3l4.3 5.2v-5.2h1.6v7.8zm4.5-7.8c1.3 0 2.3.4 3.1 1.1s1.2 1.7 1.2 2.8c0 1.2-.4 2.1-1.2 2.8s-1.8 1.1-3.1 1.1h-2.9v-7.8h2.9zm0 6.4c.8 0 1.5-.2 2-.7.5-.4.7-1.1.7-1.8s-.2-1.4-.7-1.8c-.5-.4-1.1-.7-2-.7h-1.3v5h1.3zM460.8 95c.4-.3.7-.8.8-1.5l1.5.3c-.2 1-.6 1.8-1.3 2.3s-1.5.8-2.5.8c-1.2 0-2.1-.4-2.9-1.2-.8-.8-1.2-1.8-1.2-2.9 0-1.1.4-2.1 1.2-2.9.8-.8 1.8-1.2 2.9-1.2 1 0 1.8.3 2.5.8s1.2 1.3 1.4 2.2l-1.5.4c-.1-.6-.4-1.1-.8-1.5s-.9-.5-1.5-.5c-.7 0-1.3.2-1.8.7-.5.5-.7 1.1-.7 1.9s.2 1.4.7 1.9c.5.5 1.1.7 1.8.7.5.2 1 .1 1.4-.3zm8.7 1.8l-2.6-2.9h-.9v2.9h-1.6V89h3.8c.8 0 1.5.2 2 .7.5.5.8 1.1.8 1.8s-.2 1.2-.6 1.6-1 .7-1.6.8l2.6 2.9h-1.9zm-1.3-4.3c.4 0 .7-.1.9-.3.2-.2.3-.4.3-.8 0-.3-.1-.6-.3-.8-.2-.2-.5-.3-.9-.3H466v2.1h2.2zm10.1 4.3h-6V89h5.9v1.4h-4.3v1.8h4v1.4h-4v1.8h4.4v1.4zm7.2 0l-.7-1.7h-3.5l-.7 1.7h-1.7l3.4-7.8h1.5l3.4 7.8h-1.7zm-2.4-5.9l-1.1 2.8h2.3l-1.2-2.8zm7.8-.5v6.4h-1.6v-6.4h-2.6V89h6.8v1.4h-2.6zm3.7 6.4V89h1.6v7.8h-1.6zm7.4 0h-1.5l-3.4-7.8h1.8l2.4 5.7 2.4-5.7h1.8l-3.5 7.8zm4.3 0V89h1.6v7.8h-1.6zm6.9-6.4v6.4h-1.6v-6.4H509V89h6.8v1.4h-2.6zm7.6 6.4h-1.6v-2.5l-3.1-5.4h1.8l2.1 3.7 2.1-3.7h1.8l-3.2 5.3v2.6zM157.8 28.4h32.4c17.6 0 28.3 8.1 28.3 22.7 0 7.7-3.1 13.2-9 17.1 8 3.6 11.6 10.4 11.6 18.5 0 17.6-13.6 25.4-30.4 25.4h-33V28.4zm30.6 31.7c3.8 0 5.9-2.6 5.9-6.1 0-3.3-2-5.7-6.1-5.7h-6.7v11.8h6.9zm1.6 32.1c4.3 0 6.8-3.6 6.8-6.8 0-3.3-2.3-6.7-6.5-6.7h-8.9v13.5h8.6zm37.8-63.8h27.3c26.9 0 44.7 15.7 44.7 41.9 0 25.8-17.6 41.9-44.7 41.9h-27.3V28.4zm26.8 63.7c12.2 0 20.5-7.3 20.5-21.8 0-14.7-8.3-21.8-20.5-21.8h-3V92h3zm92.7-65.2c10 0 19.3 3 25.4 7.2l-6.6 20.8c-3.9-3.2-9.7-6.2-17.6-6.2-12.7 0-21.2 9.3-21.2 21.5 0 12.4 8.5 21.8 21.2 21.8 7.9 0 13.6-3 17.6-6.2l6.6 20.8c-6.1 4.2-15.3 7.2-25.4 7.2-27.2 0-44.9-19.3-44.9-43.5s17.7-43.4 44.9-43.4z"/><path d="M414.3 26.9c10 0 19.3 3 25.4 7.2L433 54.9c-3.9-3.2-9.7-6.2-17.6-6.2-12.7 0-21.2 9.3-21.2 21.5 0 12.4 8.5 21.8 21.2 21.8 7.9 0 13.6-3 17.6-6.2l6.6 20.8c-6.1 4.2-15.3 7.2-25.4 7.2-27.2 0-44.9-19.3-44.9-43.5.1-24.2 17.8-43.4 45-43.4zM101.6 71.4h41.1l-10-21.4H92.8l29.1-29.1-22.2-8.1-28.3 28.3V0L50 10v40L20.9 20.9l-8 22.2 28.2 28.3H0l10 21.4h40l-29.1 29 22.2 8.1 28.3-28.3v41.1l21.4-10V92.8l29.1 29.1 8-22.2-28.3-28.3z"/></symbol><symbol id="logo-basquedcc-horizontal-small" viewBox="0 0 94 30"><path d="M33.2 6H40c3.7 0 6 1.7 6 4.8 0 1.6-.7 2.8-1.9 3.6 1.7.8 2.4 2.2 2.4 3.9 0 3.7-2.9 5.3-6.4 5.3h-6.9V6zm6.4 6.6c.8 0 1.2-.6 1.2-1.3 0-.7-.4-1.2-1.3-1.2h-1.4v2.5h1.5zm.3 6.8c.9 0 1.4-.8 1.4-1.4 0-.7-.5-1.4-1.4-1.4H38v2.8h1.9zm8-13.4h5.7c5.7 0 9.4 3.3 9.4 8.8 0 5.4-3.7 8.8-9.4 8.8h-5.7V6zm5.6 13.3c2.6 0 4.3-1.5 4.3-4.6 0-3.1-1.7-4.6-4.3-4.6h-.6v9.2h.6zM73 5.6c2.1 0 4 .6 5.3 1.5l-1.4 4.4c-.8-.7-2-1.3-3.7-1.3-2.7 0-4.4 2-4.4 4.5 0 2.6 1.8 4.6 4.4 4.6 1.7 0 2.9-.6 3.7-1.3l1.4 4.4c-1.3.9-3.2 1.5-5.3 1.5-5.7 0-9.4-4-9.4-9.2 0-5 3.7-9.1 9.4-9.1z"/><path d="M87.1 5.6c2.1 0 4 .6 5.3 1.5L91 11.5c-.8-.7-2-1.3-3.7-1.3-2.7 0-4.4 2-4.4 4.5 0 2.6 1.8 4.6 4.4 4.6 1.7 0 2.9-.6 3.7-1.3l1.4 4.4c-1.3.9-3.2 1.5-5.3 1.5-5.7 0-9.4-4-9.4-9.2-.1-5 3.7-9.1 9.4-9.1zM21.4 15H30l-2.1-4.5h-8.4l6.1-6.1-4.7-1.7L15 8.6V0l-4.5 2.1v8.4L4.4 4.4 2.7 9.1 8.6 15H0l2.1 4.5h8.4l-6.1 6.1 4.7 1.7 5.9-5.9V30l4.5-2.1v-8.4l6.1 6.1 1.7-4.7-5.9-5.9z"/></symbol><symbol id="logo-basquedcc-horizontal-small__bdcc" viewBox="0 0 94 30"><path d="M33.2 6H40c3.7 0 6 1.7 6 4.8 0 1.6-.7 2.8-1.9 3.6 1.7.8 2.4 2.2 2.4 3.9 0 3.7-2.9 5.3-6.4 5.3h-6.9V6zm6.4 6.6c.8 0 1.2-.6 1.2-1.3 0-.7-.4-1.2-1.3-1.2h-1.4v2.5h1.5zm.3 6.8c.9 0 1.4-.8 1.4-1.4 0-.7-.5-1.4-1.4-1.4H38v2.8h1.9zm8-13.4h5.7c5.7 0 9.4 3.3 9.4 8.8 0 5.4-3.7 8.8-9.4 8.8h-5.7V6zm5.6 13.3c2.6 0 4.3-1.5 4.3-4.6 0-3.1-1.7-4.6-4.3-4.6h-.6v9.2h.6zM73 5.6c2.1 0 4 .6 5.3 1.5l-1.4 4.4c-.8-.7-2-1.3-3.7-1.3-2.7 0-4.4 2-4.4 4.5 0 2.6 1.8 4.6 4.4 4.6 1.7 0 2.9-.6 3.7-1.3l1.4 4.4c-1.3.9-3.2 1.5-5.3 1.5-5.7 0-9.4-4-9.4-9.2 0-5 3.7-9.1 9.4-9.1zm14.1 0c2.1 0 4 .6 5.3 1.5L91 11.5c-.8-.7-2-1.3-3.7-1.3-2.7 0-4.4 2-4.4 4.5 0 2.6 1.8 4.6 4.4 4.6 1.7 0 2.9-.6 3.7-1.3l1.4 4.4c-1.3.9-3.2 1.5-5.3 1.5-5.7 0-9.4-4-9.4-9.2-.1-5 3.7-9.1 9.4-9.1z"/></symbol><symbol id="logo-basquedcc-horizontal-small__star" viewBox="0 0 30 30"><path d="M21.4 15H30l-2.1-4.5h-8.4l6.1-6.1-4.7-1.7L15 8.6V0l-4.5 2.1v8.4L4.4 4.4 2.7 9.1 8.6 15H0l2.1 4.5h8.4l-6.1 6.1 4.7 1.7 5.9-5.9V30l4.5-2.1v-8.4l6.1 6.1 1.7-4.7-5.9-5.9z"/></symbol><symbol id="logo-basquedcc-horizontal" viewBox="0 0 925 261"><path d="M185.4 130.2h74.9l-18.2-39.1h-72.9l53-53-40.4-14.8-51.6 51.6V0L91.1 18.2v72.9L38.2 38.2 23.5 78.7l51.4 51.5H0l18.2 39h72.9l-52.9 52.9 40.5 14.8 51.5-51.5v74.9l39-18.2v-72.9l53 53 14.8-40.4-51.6-51.6zm85.5-90.7h75.9c41.2 0 66.4 19 66.4 53.2 0 17.9-7.3 30.8-21 40 18.8 8.4 27.2 24.4 27.2 43.4 0 41.2-31.9 59.4-71.1 59.4H271v-196zm71.7 74.2c9 0 13.7-6.2 13.7-14.3 0-7.8-4.8-13.4-14.3-13.4h-15.7v27.7h16.3zm3.6 75.1c10.1 0 16-8.4 16-16 0-7.8-5.3-15.7-15.1-15.7h-20.7v31.6h19.8zm86.1-149.3h63.8c63 0 104.7 36.7 104.7 98 0 60.5-41.2 98-104.7 98h-63.8v-196zm62.8 149c28.6 0 47.9-17.1 47.9-51 0-34.4-19.3-51-47.9-51h-7v101.9h7zM708.9 38.3c23.5 0 45.1 7 59.4 16.8l-15.4 48.7c-9.2-7.6-22.7-14.6-41.2-14.6-29.7 0-49.6 21.8-49.6 50.4 0 29.1 19.9 51 49.6 51 18.5 0 31.9-7 41.2-14.6l15.4 48.7c-14.3 9.8-35.8 16.8-59.4 16.8-63.6 0-105-45.1-105-101.9 0-56.2 41.4-101.3 105-101.3z"/><path d="M865.6 38.3c23.5 0 45.1 7 59.4 16.8l-15.4 48.7c-9.2-7.6-22.7-14.6-41.2-14.6-29.7 0-49.6 21.8-49.6 50.4 0 29.1 19.9 51 49.6 51 18.5 0 31.9-7 41.2-14.6l15.4 48.7c-14.3 9.8-35.8 16.8-59.4 16.8-63.6 0-105-45.1-105-101.9 0-56.2 41.5-101.3 105-101.3z"/></symbol><symbol id="logo-basquedcc-square-small-text" viewBox="0 0 174 150"><path d="M83 139.4c.2 0 .4.1.6.3.2.2.2.4.2.7 0 .4-.1.7-.4.9-.2.2-.6.3-1.1.3H80V137h2.2c.4 0 .7.1 1 .3.2.2.4.5.4.9 0 .3-.1.5-.2.6-.1.5-.2.6-.4.6zm-2-.3h1.2c.2 0 .3-.1.4-.2.1-.1.2-.2.2-.4s-.1-.3-.2-.4c-.1-.1-.2-.2-.4-.2H81v1.2zm1.3 1.9c.2 0 .4-.1.5-.2.1-.1.2-.2.2-.4s-.1-.3-.2-.4c-.1-.1-.3-.2-.4-.2H81v1.1h1.3zm5.6.8l-.4-1h-2l-.4 1h-1l2-4.6h.9l2 4.6h-1.1zm-1.4-3.5l-.7 1.6h1.3l-.6-1.6zm5.7-.8c.3.2.5.6.6 1l-.9.2c0-.2-.1-.4-.3-.5-.2-.1-.4-.2-.6-.2-.2 0-.4.1-.5.2-.1.1-.2.2-.2.4 0 .3.2.4.5.5l1 .2c.4.1.7.2.9.5.2.2.3.5.3.9s-.2.8-.5 1c-.3.3-.8.4-1.3.4s-.9-.1-1.3-.4c-.4-.2-.6-.6-.6-1l1-.2c.1.5.5.7 1 .7.3 0 .5-.1.6-.2s.2-.2.2-.4c0-.1 0-.2-.1-.3s-.2-.1-.4-.2l-1-.2c-.8-.2-1.2-.6-1.2-1.3 0-.4.2-.7.5-1 .3-.3.7-.4 1.3-.4.3-.1.7 0 1 .3zm5.9 3c-.1.3-.3.6-.6.8l.8 1-.7.7-1-1.1c-.2.1-.5.1-.7.1-.7 0-1.2-.2-1.7-.7-.5-.5-.7-1-.7-1.7s.2-1.2.7-1.7c.5-.5 1-.7 1.7-.7s1.2.2 1.7.7c.5.5.7 1 .7 1.7 0 .3-.1.6-.2.9zm-3.3.1c.3.3.6.4 1 .4s.8-.1 1-.4c.3-.3.4-.6.4-1.1 0-.4-.1-.8-.4-1.1-.3-.3-.6-.4-1-.4s-.8.1-1 .4c-.3.3-.4.7-.4 1.1 0 .4.1.8.4 1.1zm8.2-.9c0 .6-.2 1.2-.5 1.6-.4.4-.8.6-1.4.6-.6 0-1.1-.2-1.5-.6-.4-.4-.6-.9-.6-1.6v-2.5h.9v2.5c0 .4.1.7.3.9.2.2.5.3.8.3.3 0 .6-.1.7-.3.2-.2.3-.5.3-.9v-2.5h.9v2.5zm4.3 2.1h-3.5v-4.6h3.5v.8h-2.5v1h2.3v.8h-2.3v1h2.5v1zm4.2-4.6c.8 0 1.4.2 1.8.6.5.4.7 1 .7 1.7s-.2 1.2-.7 1.7c-.5.4-1.1.6-1.8.6h-1.7v-4.6h1.7zm0 3.7c.5 0 .9-.1 1.1-.4.3-.3.4-.6.4-1.1 0-.4-.1-.8-.4-1.1-.3-.3-.7-.4-1.1-.4h-.8v2.9h.8zm3.3.9v-4.6h.9v4.6h-.9zm4.7-4.3c.3.2.5.6.6 1l-.9.2c0-.2-.1-.4-.3-.5-.2-.1-.4-.2-.6-.2-.2 0-.4.1-.5.2-.1.1-.2.2-.2.4 0 .3.2.4.5.5l1 .2c.4.1.7.2.9.5.2.2.3.5.3.9s-.2.8-.5 1c-.3.3-.8.4-1.3.4s-.9-.1-1.3-.4c-.4-.2-.6-.6-.6-1l1-.2c.1.5.5.7 1 .7.3 0 .5-.1.6-.2s.2-.2.2-.4c0-.1 0-.2-.1-.3s-.2-.1-.4-.2l-1-.2c-.8-.2-1.2-.6-1.2-1.3 0-.4.2-.7.5-1 .3-.3.7-.4 1.3-.4.3-.1.7 0 1 .3zm3.5.5v3.7h-.9V138h-1.5v-.8h4v.8H123zm5.1 3.8l-1.5-1.7h-.5v1.7h-.9v-4.6h2.2c.5 0 .9.1 1.2.4.3.3.4.6.4 1s-.1.7-.4 1c-.2.3-.6.4-1 .5l1.5 1.7h-1zm-.8-2.5c.2 0 .4-.1.5-.2.1-.1.2-.3.2-.4 0-.2-.1-.3-.2-.4-.1-.1-.3-.2-.5-.2H126v1.2h1.3zm2.4 2.5v-4.6h.9v4.6h-.9zm5-1.1c.2-.2.4-.5.5-.9l.9.2c-.1.6-.4 1-.8 1.3-.4.3-.9.5-1.5.5-.7 0-1.2-.2-1.7-.7-.5-.5-.7-1-.7-1.7s.2-1.2.7-1.7c.5-.5 1-.7 1.7-.7.6 0 1 .2 1.5.5.4.3.7.7.8 1.3l-.9.3c-.1-.4-.2-.7-.5-.9-.2-.2-.5-.3-.9-.3s-.8.1-1 .4c-.3.3-.4.6-.4 1.1 0 .4.1.8.4 1.1.3.3.6.4 1 .4.3.1.6 0 .9-.2zm4-2.7v3.7h-.9V138h-1.5v-.8h4v.8h-1.6zm7.7-.2c.5.5.7 1 .7 1.7s-.2 1.2-.7 1.7c-.5.5-1 .7-1.7.7s-1.2-.2-1.7-.7c-.5-.5-.7-1-.7-1.7s.2-1.2.7-1.7c.5-.5 1-.7 1.7-.7s1.2.2 1.7.7zm-.7 2.8c.3-.3.4-.6.4-1.1 0-.4-.1-.8-.4-1.1-.3-.3-.6-.4-1-.4s-.8.1-1 .4c-.3.3-.4.7-.4 1.1 0 .4.1.8.4 1.1.3.3.6.4 1 .4s.8-.1 1-.4zm3.1-1.4h2.2v.8h-2.2v1.8h-.9v-4.6h3.4v.8h-2.5v1.2zm-65.6 9.6c.2-.2.4-.5.5-.9l.9.2c-.1.6-.4 1-.8 1.3-.4.3-.9.5-1.5.5-.7 0-1.2-.2-1.7-.7-.5-.5-.7-1-.7-1.7s.2-1.2.7-1.7c.5-.5 1-.7 1.7-.7.6 0 1 .2 1.5.5.4.3.7.7.8 1.3l-.9.3c-.1-.4-.2-.7-.5-.9s-.5-.3-.9-.3-.8.1-1 .4c-.3.3-.4.6-.4 1.1 0 .4.1.8.4 1.1.3.3.6.4 1 .4.3.1.6 0 .9-.2zm6-1c0 .6-.2 1.2-.5 1.6-.4.4-.8.6-1.4.6-.6 0-1.1-.2-1.5-.6-.4-.4-.6-.9-.6-1.6v-2.5h.9v2.5c0 .4.1.7.3.9.2.2.5.3.8.3.3 0 .6-.1.7-.3.2-.2.3-.5.3-.9v-2.5h.9v2.5zm4.2 2.1h-3.3v-4.6h.9v3.7h2.4v.9zm2.2-3.7v3.7h-.9v-3.7h-1.5v-.8h4v.8h-1.6zm6.1 1.6c0 .6-.2 1.2-.5 1.6-.4.4-.8.6-1.4.6-.6 0-1.1-.2-1.5-.6-.4-.4-.6-.9-.6-1.6v-2.5h.9v2.5c0 .4.1.7.3.9.2.2.5.3.8.3.3 0 .6-.1.7-.3.2-.2.3-.5.3-.9v-2.5h.9v2.5zm3.8 2.1l-1.5-1.7h-.5v1.7h-.9v-4.6h2.2c.5 0 .9.1 1.2.4.3.3.4.6.4 1s-.1.7-.4 1c-.2.3-.6.4-1 .5l1.5 1.7h-1zm-.7-2.5c.2 0 .4-.1.5-.2.1-.1.2-.3.2-.4 0-.2-.1-.3-.2-.4-.1-.1-.3-.2-.5-.2h-1.3v1.2h1.3zm5.9 2.5h-3.5v-4.6h3.5v.8h-2.5v1h2.3v.8h-2.3v1h2.5v1zm5.8 0l-.4-1h-2l-.4 1h-1l2-4.6h.9l2 4.6h-1.1zm-1.4-3.4l-.7 1.6h1.3l-.6-1.6zm7.1 3.4h-.8l-2.5-2.9v2.9h-.9v-4.6h.8l2.5 3v-3h.9v4.6zm2.7-4.6c.8 0 1.4.2 1.8.6.5.4.7 1 .7 1.7s-.2 1.2-.7 1.7c-.5.4-1.1.6-1.8.6h-1.7v-4.6h1.7zm0 3.8c.5 0 .9-.1 1.1-.4.3-.3.4-.6.4-1.1 0-.4-.1-.8-.4-1.1-.3-.3-.7-.4-1.1-.4h-.8v2.9h.8zm8-.3c.2-.2.4-.5.5-.9l.9.2c-.1.6-.4 1-.8 1.3-.4.3-.9.5-1.5.5-.7 0-1.2-.2-1.7-.7-.5-.5-.7-1-.7-1.7s.2-1.2.7-1.7c.5-.5 1-.7 1.7-.7.6 0 1 .2 1.5.5.4.3.7.7.8 1.3l-.9.3c-.1-.4-.2-.7-.5-.9-.2-.2-.5-.3-.9-.3s-.8.1-1 .4c-.3.3-.4.6-.4 1.1 0 .4.1.8.4 1.1.3.3.6.4 1 .4.3.1.6 0 .9-.2zm5 1.1l-1.5-1.7h-.5v1.7h-.9v-4.6h2.2c.5 0 .9.1 1.2.4.3.3.4.6.4 1s-.1.7-.4 1c-.2.3-.6.4-1 .5l1.5 1.7h-1zm-.7-2.5c.2 0 .4-.1.5-.2.1-.1.2-.3.2-.4 0-.2-.1-.3-.2-.4-.1-.1-.3-.2-.5-.2h-1.3v1.2h1.3zm5.9 2.5h-3.5v-4.6h3.5v.8h-2.5v1h2.3v.8h-2.3v1h2.5v1zm4.1 0l-.4-1h-2l-.4 1h-1l2-4.6h.9l2 4.6h-1.1zm-1.4-3.4l-.7 1.6h1.3l-.6-1.6zm4.6-.3v3.7h-.9v-3.7H148v-.8h4v.8h-1.6zm2.2 3.7v-4.6h.9v4.6h-.9zm4.3 0h-.9l-2-4.6h1l1.4 3.3 1.4-3.3h1l-1.9 4.6zm2.5 0v-4.6h.9v4.6h-.9zm4-3.7v3.7h-.9v-3.7H161v-.8h4v.8h-1.6zm4.5 3.7h-.9v-1.4l-1.8-3.1h1l1.2 2.2 1.2-2.2h1.1l-1.8 3.1v1.4zM53.3 37.4h21.6l-5.2-11.2h-21L64 10.9 52.3 6.7 37.4 21.6V0L26.2 5.2v21L11 11 6.7 22.6l14.8 14.8H0l5.2 11.2h21L11 63.9l11.6 4.2 14.8-14.8v21.6l11.2-5.2v-21L63.9 64l4.2-11.6-14.8-15zm24.6-26h21.8c11.8 0 19.1 5.5 19.1 15.3 0 5.2-2.1 8.9-6 11.5 5.4 2.4 7.8 7 7.8 12.5 0 11.8-9.2 17.1-20.5 17.1H77.9V11.4zm20.6 21.3c2.6 0 3.9-1.8 3.9-4.1s-1.4-3.9-4.1-3.9h-4.5v8h4.7zm1.1 21.6c2.9 0 4.6-2.4 4.6-4.6 0-2.3-1.5-4.5-4.3-4.5h-6v9.1h5.7zM125 11.4h18.4c18.1 0 30.1 10.5 30.1 28.2 0 17.4-11.8 28.2-30.1 28.2H125V11.4zm18.1 42.8c8.2 0 13.8-4.9 13.8-14.7 0-9.9-5.6-14.7-13.8-14.7h-2v29.3h2zM103 70.9c6.8 0 13 2 17.1 4.8l-4.4 14c-2.7-2.2-6.5-4.2-11.8-4.2-8.5 0-14.3 6.3-14.3 14.5 0 8.4 5.7 14.7 14.3 14.7 5.3 0 9.2-2 11.8-4.2l4.4 14c-4.1 2.8-10.3 4.8-17.1 4.8-18.3 0-30.2-13-30.2-29.3 0-16.1 11.9-29.1 30.2-29.1zm45.1 0c6.8 0 13 2 17.1 4.8l-4.4 14c-2.7-2.2-6.5-4.2-11.8-4.2-8.5 0-14.3 6.3-14.3 14.5 0 8.4 5.7 14.7 14.3 14.7 5.3 0 9.2-2 11.8-4.2l4.4 14c-4.1 2.8-10.3 4.8-17.1 4.8-18.3 0-30.2-13-30.2-29.3 0-16.1 11.9-29.1 30.2-29.1z"/></symbol><symbol id="logo-basquedcc-square" viewBox="0 0 600 448"><path d="M184.4 129.5h74.5l-18.1-38.9h-72.5L221 37.9l-40.2-14.7-51.3 51.3V0L90.6 18.1v72.5L38 38 23.3 78.3l51.2 51.2H0l18.1 38.8h72.5L38 220.9l40.3 14.7 51.2-51.2v74.5l38.8-18.1v-72.5L221 221l14.7-40.2-51.3-51.3zm85.1-90.2H345c40.9 0 66 18.9 66 52.9 0 17.8-7.2 30.6-20.9 39.8 18.7 8.4 27 24.2 27 43.2 0 40.9-31.7 59-70.7 59h-76.9V39.3zm71.2 73.8c8.9 0 13.6-6.1 13.6-14.2 0-7.8-4.7-13.4-14.2-13.4h-15.6v27.6h16.2zm3.7 74.6c10 0 15.9-8.4 15.9-15.9 0-7.8-5.3-15.6-15-15.6h-20.6v31.5h19.7zm88-148.4h63.5c62.7 0 104.1 36.5 104.1 97.5 0 60.1-40.9 97.5-104.1 97.5h-63.5v-195zm62.3 148.2c28.4 0 47.6-17 47.6-50.7 0-34.3-19.2-50.7-47.6-50.7h-7v101.4h7zm-138.4 57.8c23.4 0 44.8 7 59 16.7L400 310.4c-9.2-7.5-22.6-14.5-40.9-14.5-29.5 0-49.3 21.7-49.3 50.1 0 29 19.8 50.7 49.3 50.7 18.4 0 31.7-7 40.9-14.5l15.3 48.5c-14.2 9.7-35.6 16.7-59 16.7-63.2 0-104.4-44.8-104.4-101.4-.1-55.9 41.1-100.7 104.4-100.7z"/><path d="M512.2 245.3c23.4 0 44.8 7 59 16.7l-15.3 48.5C546.7 303 533.3 296 515 296c-29.5 0-49.3 21.7-49.3 50.1 0 29 19.8 50.7 49.3 50.7 18.4 0 31.7-7 40.9-14.5l15.3 48.5c-14.2 9.7-35.6 16.7-59 16.7-63.2 0-104.4-44.8-104.4-101.4 0-56 41.2-100.8 104.4-100.8z"/></symbol><symbol id="logo-euskadi-eus" viewBox="0 0 152 16"><path d="M150.3 11c-.4-.5-1.3-.9-2.6-1.4-.9-.3-1.6-.6-1.9-.8-.3-.2-.6-.4-.7-.6-.1-.2-.2-.4-.2-.7 0-.4.2-.8.6-1 .4-.2 1-.4 1.8-.4.9 0 1.9.2 2.9.7l.6-1.3c-1.1-.5-2.2-.7-3.4-.7-1.2 0-2.2.3-2.9.8-.7.5-1.1 1.2-1.1 2.1 0 .5.1.9.3 1.3.2.4.5.7.9.9.4.3 1.1.6 2.1 1 1.1.4 1.8.8 2.1 1.1.4.3.5.7.5 1.1 0 .6-.2 1-.7 1.2-.5.3-1.1.4-2 .4-.6 0-1.1-.1-1.7-.2-.6-.2-1.1-.4-1.7-.6v1.5c.8.5 1.9.7 3.3.7s2.4-.3 3.1-.8c.7-.5 1.1-1.3 1.1-2.3.3-1 .1-1.6-.4-2m-18.1-6.1v7c0 1.4.3 2.4 1 3 .7.6 1.6.9 2.9.9.8 0 1.4-.1 2-.4.6-.3 1.1-.7 1.4-1.2h.1l.2 1.4h1.3V4.9h-1.6v5.7c0 1.4-.3 2.4-.8 3-.5.6-1.3.9-2.5.9-.9 0-1.5-.2-1.9-.6-.4-.4-.6-1.1-.6-2v-7h-1.5zm-4.5 2c.5.5.7 1.3.7 2.4h-5.6c.1-1 .4-1.8.9-2.3.5-.6 1.2-.8 2.1-.8.8-.1 1.4.2 1.9.7m.3 8.8c.5-.1 1.1-.3 1.6-.5v-1.5c-1.1.5-2.3.7-3.4.7s-2-.3-2.6-1c-.6-.7-.9-1.6-1-2.9h7.4v-1c0-1.5-.4-2.6-1.2-3.5-.8-.9-1.9-1.3-3.2-1.3-1.4 0-2.6.5-3.4 1.5-.9 1-1.3 2.4-1.3 4.1 0 1.7.5 3.1 1.4 4 .9 1 2.2 1.5 3.8 1.5.8.1 1.4 0 1.9-.1m-11.9-.3c.4.3.9.5 1.5.5s1.1-.2 1.5-.5c.4-.3.5-.8.5-1.4 0-.6-.2-1.1-.5-1.4-.3-.3-.8-.5-1.5-.5s-1.2.2-1.6.5c-.4.3-.5.8-.5 1.4 0 .7.2 1.1.6 1.4M112 3.5c1.4 0 2.1-.6 2.1-1.7 0-.6-.2-1-.5-1.3-.3-.3-.8-.4-1.6-.4-.7 0-1.2.1-1.6.4-.3.3-.5.7-.5 1.3.1 1.1.7 1.7 2.1 1.7m1.9 1h-3.8v11.1h3.8V4.5zm-12.4 7.7c-.3-.5-.4-1.1-.4-2 0-.9.1-1.6.4-2 .3-.5.7-.7 1.2-.7.6 0 1 .2 1.3.6.3.4.4 1.1.4 2.1v.3c0 .8-.2 1.4-.4 1.8-.3.4-.7.6-1.3.6-.5-.1-.9-.3-1.2-.7m2.6 2.1h.1l.8 1.4h2.9V.4H104v3c0 .9.1 1.7.2 2.6h-.1c-.4-.6-.8-1-1.3-1.3-.5-.2-1-.4-1.6-.4-1.3 0-2.3.5-3 1.5-.7 1-1.1 2.4-1.1 4.2 0 1.2.2 2.2.5 3.1.3.9.8 1.5 1.4 2 .6.5 1.3.7 2.1.7 1.4.1 2.4-.4 3-1.5m-15-2.2c0-.9.6-1.4 1.9-1.4h.9v.9c0 .5-.2.9-.5 1.2-.3.3-.7.4-1.2.4-.8 0-1.1-.4-1.1-1.1m6.6 3.6V8.4c0-1.3-.4-2.3-1.2-3-.8-.7-1.9-1.1-3.3-1.1-2 0-3.6.3-4.9 1l1.1 2.5c1.3-.6 2.3-.8 3.1-.8.9 0 1.4.5 1.4 1.4v.2l-1.9.1c-1.6.1-2.8.4-3.6 1-.8.6-1.2 1.5-1.2 2.6s.3 2 .9 2.7c.6.6 1.4.9 2.5.9.9 0 1.5-.1 2.1-.4.5-.2 1.1-.7 1.6-1.3h.1l.7 1.5h2.6zm-19-6.3c.1-1 .2-2 .2-3v-6H73v15.3h3.9v-3l1.2-1 2.4 4H85l-4.1-6.4 3.9-4.7h-4.3L78 7.7c-.3.4-.7 1-1.3 1.7zm-5.4 1.3c-.2-.4-.5-.8-.8-1.1-.4-.3-1-.6-1.7-.9-1-.4-1.7-.7-1.9-.8-.2-.1-.3-.3-.3-.5 0-.3.3-.5.9-.5.4 0 .8.1 1.4.2.6.2 1.1.4 1.6.6l1-2.5c-.7-.3-1.4-.5-2-.7-.6-.2-1.3-.2-2.1-.2-1.5 0-2.6.3-3.4.9-.8.6-1.2 1.4-1.2 2.4 0 .8.2 1.5.6 2 .4.5 1.1 1 2.1 1.4 1.1.4 1.8.7 2 .9.2.2.3.3.3.5 0 .4-.4.6-1.2.6-.6 0-1.2-.1-1.9-.3-.7-.2-1.4-.4-2-.6v3.1c.6.2 1.3.4 1.9.5.6.1 1.3.1 2.2.1 1.5 0 2.7-.3 3.5-.9.8-.6 1.2-1.5 1.2-2.7.1-.5 0-1-.2-1.5m-10.4 5V4.5h-3.8v4.9c0 1.2-.1 2.1-.4 2.6-.3.5-.8.8-1.4.8-.5 0-.8-.2-1-.6-.2-.4-.3-.9-.3-1.7v-6h-4v7.3c0 1.3.3 2.3 1 3 .7.7 1.6 1.1 2.9 1.1.8 0 1.4-.1 2-.4.6-.3 1-.7 1.3-1.2h.2l.5 1.4h3zM44.6 7.4c.2.4.4.8.4 1.3h-3.3c.1-.6.2-1.1.5-1.3.3-.3.7-.4 1.2-.4s.9.1 1.2.4m1.3 8.3c.6-.1 1.3-.3 1.9-.6v-2.8c-.7.3-1.3.5-1.8.7-.6.1-1.2.2-1.9.2s-1.3-.2-1.8-.5c-.4-.4-.7-.8-.7-1.5h6.9V9.4c0-1.6-.5-2.9-1.4-3.8-.9-.9-2.2-1.3-3.9-1.3-1.8 0-3.1.5-4.1 1.5-1 1-1.4 2.4-1.4 4.3 0 1.8.5 3.2 1.5 4.2s2.5 1.5 4.3 1.5c1 .1 1.8 0 2.4-.1m-23.5 0h9.2C31.6 7.2 24.7.4 16.3.4S1 7.2 1 15.7h9.2c0-3.4 2.7-6.1 6.1-6.1 3.4-.1 6.1 2.7 6.1 6.1"/></symbol><symbol id="title_oval_help" viewBox="0 0 230 190"><path fill="currentColor" d="M18.2 91.5c1.4-.1 2.7-.5 3.6-1 1-.6 1.7-1.7 2.1-3.3l13-52c.1-.4.2-.8.2-1.4 0-1-.3-1.7-1-2.1-.7-.4-1.6-.6-2.8-.8l-4.2-.3.2-.9h20.9l-.2.9-4.4.3c-1.4.1-2.7.5-3.6 1-1 .6-1.7 1.7-2.1 3.3l-5.6 22.3h32.2l5.6-22.3c.1-.4.2-.8.2-1.4 0-1-.3-1.7-1-2.1-.7-.4-1.6-.6-2.8-.8l-4.2-.3.2-.9h20.9l-.2.9-4.4.3c-1.4.1-2.7.5-3.6 1-1 .6-1.7 1.7-2.1 3.3l-13 52c-.1.4-.2.8-.2 1.4 0 1 .3 1.7 1 2.1.7.4 1.6.6 2.8.8l4.2.3-.2.9h-21l.2-.9 4.4-.3c1.4-.1 2.7-.5 3.6-1 1-.6 1.7-1.7 2.1-3.3l7.1-28.6H34l-7.1 28.6c-.1.4-.2.8-.2 1.4 0 1 .3 1.7 1 2.1.7.4 1.6.6 2.8.8l4.2.3-.2.9H13.6l.2-.9 4.4-.3zm57.8 0c1.4-.1 2.7-.5 3.6-1 1-.6 1.7-1.7 2.1-3.3l13-52c.1-.4.2-.8.2-1.4 0-1-.3-1.7-1-2.1-.7-.4-1.6-.6-2.8-.8l-4.2-.3.2-.9h38.2l-.9 12h-.9c.1-3.1 0-5.4-.4-7-.4-1.5-1.1-2.6-2.2-3.1s-2.8-.8-5.1-.8h-17L92 57.6h16.8c1.1 0 2.2-.4 3.2-1.1 1-.7 1.7-1.7 2.1-2.8l1.3-4.1h.9l-4.2 17.1h-.9l.7-4.1c.2-1.1-.1-2.1-.7-2.8-.7-.7-1.6-1.1-2.7-1.1H91.8l-7.1 28.6c-.1.4-.2.8-.2 1.4 0 2 1.3 3 3.8 3l13.8.1c2.4 0 4.3-.3 5.8-.9 1.5-.6 2.9-1.8 4.3-3.6s2.9-4.6 4.7-8.5h.9l-5.7 14H71.4l.2-.9 4.4-.4zm44.5 0c1.5-.1 2.7-.5 3.7-1 1-.6 1.7-1.7 2.1-3.3l13-52c.2-.7.3-1.4.3-1.9 0-.9-.3-1.5-.8-1.8-.5-.3-1.3-.5-2.3-.6l-5-.3.2-.9h20.9l-.2.9-5.1.3c-1.3.1-2.4.4-3.2.9-.8.6-1.4 1.7-1.8 3.4l-13 52c-.2.6-.3 1.2-.3 1.7 0 1.1.6 1.9 1.7 2.2 1.1.4 3.2.5 6.2.5 5.3 0 9.3-.4 12-1.3 2.7-.9 4.7-2.1 6-3.8 1.3-1.7 2.7-4.3 4.3-7.8h.9l-5.8 14H116l.2-.9 4.3-.3zm42.4 0c1.4-.1 2.7-.5 3.6-1 1-.6 1.7-1.7 2.1-3.3l13-52c.1-.4.2-.8.2-1.4 0-1-.3-1.7-1-2.1-.7-.4-1.6-.6-2.8-.8l-4.2-.3.2-.9h23.8c3.4 0 6.4.6 8.9 1.8 2.5 1.2 4.4 2.8 5.6 4.8 1.3 2 1.9 4 1.9 6.3 0 .6-.1 1.5-.4 2.7-1 3.8-3.4 6.9-7.2 9.5-3.8 2.5-8.6 3.8-14.4 3.8h-13.5l-7.1 28.7c-.1.4-.2.8-.2 1.4 0 1 .3 1.7 1 2.1.7.4 1.6.6 2.8.8l4.2.3-.2.9h-20.9l.2-.9 4.4-.4zm41.5-37.3c3.1-2.2 5.2-5.1 6.1-8.9.3-1.2.4-2.3.4-3.2 0-3.2-1.2-5.9-3.6-8.1-2.4-2.2-5.8-3.2-10.1-3.2h-11.6l-6.8 26.7h13.4c5-.1 9-1.2 12.2-3.3zM26.6 164.9c-.5-.5-.7-1-.7-1.7 0-1 .4-1.9 1.3-2.7.8-.8 1.8-1.2 2.8-1.2.7 0 1.3.2 1.8.7.5.5.7 1 .7 1.7 0 1-.4 1.9-1.3 2.7-.8.8-1.8 1.2-2.8 1.2-.8 0-1.4-.2-1.8-.7zm7.8-24.7c1.2-2.5 2.4-4.6 3.7-6.3 1.3-1.7 2.9-3.6 4.9-5.7 2.3-2.4 4.1-4.5 5.4-6.4 1.3-1.9 2.3-4.2 3-7 .5-2 .7-3.7.7-5 0-2.6-.7-4.6-2.1-6-1.4-1.4-3.1-2-5.2-2-3 0-5.5 1.1-7.5 3.3-2 2.2-3.4 5.4-4.2 9.8-.2 1-.5 1.8-1 2.5s-1.2 1-2 1c-.6 0-1-.3-1.3-.8-.2-.5-.3-1.1-.2-1.8.4-2.5 1.5-4.8 3.2-7.2 1.7-2.3 3.7-4.2 6.2-5.6 2.4-1.4 4.9-2.1 7.3-2.1 2.9 0 5.3.9 7.3 2.7 2 1.8 3 4.3 3 7.5 0 1.4-.2 2.6-.4 3.7-.8 3.4-2.1 6.2-3.7 8.3-1.7 2.1-3.9 4.5-6.9 7.2-3.2 2.8-5.7 5.5-7.7 8.2-1.9 2.6-3.4 6.2-4.4 10.5h-.8c.6-3.3 1.5-6.3 2.7-8.8zm25.7 24.7c-.5-.5-.7-1-.7-1.7 0-1 .4-1.9 1.3-2.7.8-.8 1.8-1.2 2.8-1.2.7 0 1.3.2 1.8.7.5.5.7 1 .7 1.7 0 1-.4 1.9-1.3 2.7-.8.8-1.8 1.2-2.8 1.2-.7 0-1.3-.2-1.8-.7zm7.9-24.7c1.2-2.5 2.4-4.6 3.7-6.3 1.3-1.7 2.9-3.6 4.9-5.7 2.3-2.4 4.1-4.5 5.4-6.4 1.3-1.9 2.3-4.2 3-7 .5-2 .7-3.7.7-5 0-2.6-.7-4.6-2.1-6-1.4-1.4-3.1-2-5.2-2-3 0-5.5 1.1-7.5 3.3-2 2.2-3.4 5.4-4.2 9.8-.2 1-.5 1.8-1 2.5s-1.2 1-2 1c-.6 0-1-.3-1.3-.8-.2-.5-.3-1.1-.2-1.8.4-2.5 1.5-4.8 3.2-7.2 1.7-2.3 3.7-4.2 6.2-5.6 2.4-1.4 4.9-2.1 7.3-2.1 2.9 0 5.3.9 7.3 2.7 2 1.8 3 4.3 3 7.5 0 1.4-.2 2.6-.4 3.7-.8 3.4-2.1 6.2-3.7 8.3-1.7 2.1-3.9 4.5-6.9 7.2-3.2 2.8-5.7 5.5-7.7 8.2-1.9 2.6-3.4 6.2-4.4 10.5h-.8c.6-3.3 1.5-6.3 2.7-8.8zm25.7 24.7c-.5-.5-.7-1-.7-1.7 0-1 .4-1.9 1.3-2.7.8-.8 1.8-1.2 2.8-1.2.7 0 1.3.2 1.8.7.5.5.7 1 .7 1.7 0 1-.4 1.9-1.3 2.7-.8.8-1.8 1.2-2.8 1.2-.8 0-1.4-.2-1.8-.7zm7.8-24.7c1.2-2.5 2.4-4.6 3.7-6.3 1.3-1.7 2.9-3.6 4.9-5.7 2.3-2.4 4.1-4.5 5.4-6.4 1.3-1.9 2.3-4.2 3-7 .5-2 .7-3.7.7-5 0-2.6-.7-4.6-2.1-6-1.4-1.4-3.1-2-5.2-2-3 0-5.5 1.1-7.5 3.3-2 2.2-3.4 5.4-4.2 9.8-.2 1-.5 1.8-1 2.5s-1.2 1-2 1c-.6 0-1-.3-1.3-.8-.2-.5-.3-1.1-.2-1.8.4-2.5 1.5-4.8 3.2-7.2 1.7-2.3 3.7-4.2 6.2-5.6 2.4-1.4 4.9-2.1 7.3-2.1 2.9 0 5.3.9 7.3 2.7 2 1.8 3 4.3 3 7.5 0 1.4-.2 2.6-.4 3.7-.8 3.4-2.1 6.2-3.7 8.3-1.7 2.1-3.9 4.5-6.9 7.2-3.2 2.8-5.7 5.5-7.7 8.2-1.9 2.6-3.4 6.2-4.4 10.5h-.8c.6-3.3 1.6-6.3 2.7-8.8zm25.8 24.7c-.5-.5-.7-1-.7-1.7 0-1 .4-1.9 1.3-2.7.8-.8 1.8-1.2 2.8-1.2.7 0 1.3.2 1.8.7.5.5.7 1 .7 1.7 0 1-.4 1.9-1.3 2.7-.8.8-1.8 1.2-2.8 1.2-.8 0-1.4-.2-1.8-.7zm7.8-24.7c1.2-2.5 2.4-4.6 3.7-6.3 1.3-1.7 2.9-3.6 4.9-5.7 2.3-2.4 4.1-4.5 5.4-6.4 1.3-1.9 2.3-4.2 3-7 .5-2 .7-3.7.7-5 0-2.6-.7-4.6-2.1-6-1.4-1.4-3.1-2-5.2-2-3 0-5.5 1.1-7.5 3.3-2 2.2-3.4 5.4-4.2 9.8-.2 1-.5 1.8-1 2.5s-1.2 1-2 1c-.6 0-1-.3-1.3-.8-.2-.5-.3-1.1-.2-1.8.4-2.5 1.5-4.8 3.2-7.2 1.7-2.3 3.7-4.2 6.2-5.6 2.4-1.4 4.9-2.1 7.3-2.1 2.9 0 5.3.9 7.3 2.7 2 1.8 3 4.3 3 7.5 0 1.4-.2 2.6-.4 3.7-.8 3.4-2.1 6.2-3.7 8.3-1.7 2.1-3.9 4.5-6.9 7.2-3.2 2.8-5.7 5.5-7.7 8.2-1.9 2.6-3.4 6.2-4.4 10.5h-.8c.6-3.3 1.5-6.3 2.7-8.8z"/><path vector-effect="non-scaling-stroke" stroke="currentColor" fill="none" class="oval" d="M224.8 63.6c0 33.8-49.2 61.2-109.8 61.2S5.2 97.5 5.2 63.6 54.4 2.4 115 2.4s109.8 27.4 109.8 61.2z"/></symbol><symbol id="titles__about" viewBox="0 0 1440 350"><path d="M279.3 342.7L239.1 253H51.9l-40.7 89.7h-26.5L134.2 14.4h22.1l149.5 328.3h-26.5zM145.5 45.8L62.2 230.5h166.6L145.5 45.8zM486 176.1c21.2 2.3 38.3 10.5 51.2 24.5 12.9 14 19.4 32 19.4 53.9 0 26.1-9 47.4-27 63.7-18 16.3-42.3 24.5-73 24.5H301.3V14.4h146c30.7 0 54.7 7.7 72 23 17.3 15.4 26 35.8 26 61.3 0 20.3-5.7 37.4-17.2 51.5s-25.5 22.4-42.1 25v.9zm-159.7-9.3h126.4c20.6 0 37.2-6.2 50-18.6 12.7-12.4 19.1-28.6 19.1-48.5 0-19.3-6.8-34.7-20.3-46.3C487.9 41.7 469.2 36 445.4 36H326.3v130.8zm128.4 154.3c23.2 0 41.8-6.3 55.9-18.9 14-12.6 21.1-29 21.1-49.2s-7.1-36.3-21.3-48c-14.2-11.8-32.9-17.6-56.1-17.6h-128v133.8h128.4zM843.2 58.2c32.3 32.8 48.5 72.9 48.5 120.3 0 47.7-16.2 87.9-48.5 120.5s-72 49-119.1 49c-47.4 0-87.2-16.3-119.6-49S556 226.2 556 178.5c0-47.4 16.3-87.5 48.8-120.3C637.4 25.4 677.1 9 724.2 9c47 0 86.7 16.4 119 49.2zm-17.4 224.7c27.6-28.1 41.4-62.9 41.4-104.4 0-41.2-13.8-75.9-41.4-104.1C798.2 46.2 764.3 32 724.2 32c-40.5 0-74.6 14.1-102.2 42.4-27.6 28.3-41.4 63-41.4 104.1 0 41.5 13.8 76.3 41.4 104.4C649.6 311 683.7 325 724.2 325c40.1.1 74-14 101.6-42.1zm350.6-81.8c0 44.1-12.3 79.6-37 106.6s-57.1 40.4-97.3 40.4c-40.8 0-73.7-13.5-98.5-40.4s-37.2-62.5-37.2-106.6V14.4h25v186.7c0 37.2 10.1 67.1 30.4 89.7s47 33.8 80.4 33.8c33 0 59.5-11.3 79.6-33.8 20.1-22.5 30.1-52.4 30.1-89.7V14.4h24.5v186.7zm150.9-164.2v305.8h-25.5V36.9H1174V14.4h281.3v22.5h-128z"/></symbol><symbol id="titles__advice" viewBox="0 0 1440 350"><path d="M260.9 344.6l-40.2-89.7H33.5l-40.7 89.7h-26.5L115.8 16.3h22.1l149.5 328.3h-26.5zM127.1 47.7L43.8 232.4h166.6L127.1 47.7zm258.7-31.4c57.2 0 101.8 15.6 134 46.8 32.2 31.2 48.3 70.3 48.3 117.4 0 47-16.1 86.2-48.3 117.4-32.2 31.2-76.8 46.8-134 46.8H282.9V16.3h102.9zm-.5 305.8c50 0 88.9-13.5 116.6-40.4s41.7-60.7 41.7-101.2-13.9-74.2-41.7-101.2-66.6-40.4-116.6-40.4h-77.4v283.2h77.4zm323.9 22.5h-23L541.6 16.3h27l128.9 294 129.4-294h27L709.2 344.6zm143.1 0V16.3h25v328.3h-25zm293.8-40.2c23-15 39.4-35.4 49.2-61.2l24 5.9c-11.1 31-30.4 55.6-57.8 73.7s-59.5 27.2-96 27.2c-47.4 0-87.4-16.4-120.1-49.2s-49-72.9-49-120.3 16.3-87.5 49-120.3S1018.1 11 1065.5 11c36.6 0 68.6 9 96 27s46.7 42.1 57.8 72.5l-23.5 7.4c-9.5-25.8-25.8-46.2-49-61.3-23.2-15-50.3-22.5-81.3-22.5-40.5 0-74.7 14.1-102.7 42.4-27.9 28.3-41.9 63-41.9 104.1 0 41.2 14 75.9 41.9 104.1 27.9 28.3 62.1 42.4 102.7 42.4 30.7-.1 57.5-7.6 80.6-22.7zm117.3-135.7h195.5v22.1h-195.5v131.3h210.2v22.5h-235.2V16.3h235.2v22.5h-210.2v129.9z"/></symbol><symbol id="titles__aids" viewBox="0 0 1440 350"><path d="M497.3 38.8h79.4V322H515L375.8 16.3h-22L204.3 344.6h26.5l40.7-89.7h187.2l38.7 86.4v3.3H681v-22.5h-79.4V38.8H681V16.3H497.3v22.5zM281.7 232.4L365 47.7l83.3 184.7H281.7zm648-169.3c-32.2-31.2-76.8-46.8-134-46.8H692.8v328.3h102.9c57.2 0 101.8-15.6 134-46.8 32.2-31.2 48.3-70.3 48.3-117.4 0-47-16.1-86.1-48.3-117.3zm-17.9 218.5c-27.8 27-66.6 40.4-116.6 40.4h-77.4V38.8h77.4c50 0 88.9 13.5 116.6 40.4 27.8 27 41.7 60.7 41.7 101.2 0 40.6-13.9 74.3-41.7 101.2zm323.9-25.2c0 28.4-10.7 51.1-32.1 68.1-21.4 17-49.7 25.5-85 25.5-35.9 0-66-8.7-90.2-26.2-24.2-17.5-38.1-41.2-41.7-71.3l26.5-5.9c2.9 25.2 14.2 45 33.8 59.5 19.6 14.5 44.1 21.8 73.5 21.8 27.8 0 49.8-6.4 66.2-19.1 16.3-12.7 24.5-29.9 24.5-51.5 0-17.6-4.8-30.7-14.5-39.2-9.6-8.5-25.2-15.2-46.8-20.1l-76-17.6c-50.3-11.8-75.5-38.1-75.5-78.9 0-27.4 10.4-49.4 31.1-65.9 20.7-16.5 47.8-24.7 81.1-24.7 32 0 58.6 8 79.6 24s34.4 37.2 39.9 63.7l-24.5 5.9c-4.2-21.9-14.9-39.4-31.9-52.4-17-13.1-38.4-19.6-64.2-19.6-24.8 0-45.2 6.2-61 18.6-15.8 12.4-23.8 29.1-23.8 50 0 16.7 5 29.3 14.9 38 10 8.7 24.4 15.1 43.4 19.4l72 17.2c11.4 2.3 21.5 5.2 30.1 8.8 8.7 3.6 17 8.5 25 14.7 8 6.2 14.2 14.1 18.6 23.8 4.8 9.5 7 20.7 7 33.4z"/></symbol><symbol id="titles__icss" viewBox="0 0 1440 350"><path d="M295.7 322.1H375v22.5H191.3v-22.5h79.4V38.8h-79.4V16.3H375v22.5h-79.4v283.3zm306-17.7c23-15 39.4-35.4 49.2-61.2l24 5.9c-11.1 31-30.4 55.6-57.8 73.7s-59.5 27.2-96 27.2c-47.4 0-87.4-16.4-120.1-49.2s-49-72.9-49-120.3S368.4 93 401 60.2 473.7 11 521.1 11c36.6 0 68.6 9 96 27s46.7 42.1 57.8 72.5l-23.5 7.4c-9.5-25.8-25.8-46.2-49-61.3-23.2-15-50.3-22.5-81.3-22.5-40.5 0-74.7 14.1-102.7 42.4-27.9 28.3-41.9 63-41.9 104.1 0 41.2 14 75.9 41.9 104.1 27.9 28.3 62.1 42.4 102.7 42.4 30.7-.1 57.5-7.6 80.6-22.7zm325.8 0c23-15 39.4-35.4 49.2-61.2l24 5.9c-11.1 31-30.4 55.6-57.8 73.7s-59.5 27.2-96 27.2c-47.4 0-87.4-16.4-120.1-49.2s-49-72.9-49-120.3 16.3-87.5 49-120.3S799.5 11 846.9 11c36.6 0 68.6 9 96 27s46.7 42.1 57.8 72.5l-23.5 7.4c-9.5-25.8-25.8-46.2-49-61.3-23.2-15-50.3-22.5-81.3-22.5-40.5 0-74.7 14.1-102.7 42.4-27.9 28.3-41.9 63-41.9 104.1 0 41.2 14 75.9 41.9 104.1 27.9 28.3 62.1 42.4 102.7 42.4 30.7-.1 57.6-7.6 80.6-22.7zm275.9-269.5c21.1 16 34.4 37.2 39.9 63.7l-24.5 5.9c-4.2-21.9-14.9-39.4-31.9-52.4-17-13.1-38.4-19.6-64.2-19.6-24.8 0-45.2 6.2-61 18.6-15.8 12.4-23.8 29.1-23.8 50 0 16.7 5 29.3 14.9 38 10 8.7 24.4 15.1 43.4 19.4l72 17.2c11.4 2.3 21.5 5.2 30.1 8.8 8.7 3.6 17 8.5 25 14.7 8 6.2 14.2 14.1 18.6 23.8s6.6 20.8 6.6 33.6c0 28.4-10.7 51.1-32.1 68.1-21.4 17-49.7 25.5-85 25.5-35.9 0-66-8.7-90.2-26.2s-38.1-41.2-41.7-71.3l26.5-5.9c2.9 25.2 14.2 45 33.8 59.5 19.6 14.5 44.1 21.8 73.5 21.8 27.8 0 49.8-6.4 66.2-19.1 16.3-12.7 24.5-29.9 24.5-51.5 0-17.6-4.8-30.7-14.5-39.2-9.6-8.5-25.2-15.2-46.8-20.1l-76-17.6c-50.3-11.8-75.5-38.1-75.5-78.9 0-27.4 10.4-49.4 31.1-65.9 20.7-16.5 47.8-24.7 81.1-24.7 32.4-.2 58.9 7.8 80 23.8z"/></symbol><symbol id="titles__mgz" viewBox="0 0 1440 350"><path d="M595.3 344.6h-24v-272l-141.1 272h-17.6L271 72.6v272h-24V16.3h22l152.4 292 152.4-292h21.6v328.3zm351.3-174.9c.3 2.6.5 6.2.5 10.8 0 48-15.3 88.3-45.8 120.8-30.5 32.5-69.8 48.8-117.8 48.8-47.4 0-87.4-16.3-120.1-49s-49-72.8-49-120.5 16.3-87.9 48.8-120.5 72.4-49 119.8-49c35.9 0 67.5 8.2 94.6 24.7 27.1 16.5 46.5 39.1 58.3 67.9l-22.1 8.3c-11.1-24.5-28.1-43.6-51-57.3C840 40.8 813.3 33.9 783 33.9c-40.5 0-74.6 14.1-102.2 42.4s-41.4 63-41.4 104.1c0 41.2 14 75.9 41.9 104.1 27.9 28.3 62.1 42.4 102.7 42.4 39.2 0 71.5-12.8 97-38.5s39.5-57.7 42.1-96.3H763.9v-22.5h182.7zm246.5 174.9H945.2v-15.7l215.1-291.1H951.5V16.3h241.1v17.2L979.9 323h213.2v21.6z"/></symbol><symbol id="titles__news" viewBox="0 0 1440 350"><path d="M279 344.6h-22.1L25.1 57.8v286.8H0V15h22.1l232.2 288.8V15H279v329.6zM418.7 168H615v22.1H418.7V322h211.1v22.6H393.6V15h236.1v22.6h-211V168zm614 176.6h-25.1l-94-290.3-94 290.3H795L690.7 15h26.1l91.5 291.3L901.8 15h24.1l93.5 291.3 91-291.3h26.1l-103.8 329.6zm361.8-310.9c21.2 16.1 34.5 37.4 40.1 64l-24.6 5.9c-4.3-22-14.9-39.5-32-52.6-17.1-13.1-38.5-19.7-64.4-19.7-24.9 0-45.3 6.2-61.3 18.7-15.9 12.5-23.9 29.2-23.9 50.2 0 16.7 5 29.4 15 38.1 10 8.7 24.5 15.2 43.5 19.4l72.3 17.2c11.5 2.3 21.6 5.2 30.3 8.9 8.7 3.6 17.1 8.5 25.1 14.8 8 6.2 14.3 14.2 18.7 23.9 4.4 9.7 6.6 20.9 6.6 33.7 0 28.5-10.7 51.3-32.2 68.4-21.5 17.1-49.9 25.6-85.4 25.6-36.1 0-66.3-8.8-90.5-26.3-24.3-17.5-38.2-41.4-41.8-71.6l26.6-5.9c3 25.3 14.3 45.2 33.9 59.8 19.7 14.6 44.3 21.9 73.8 21.9 27.9 0 50-6.4 66.4-19.2 16.4-12.8 24.6-30 24.6-51.7 0-17.7-4.8-30.8-14.5-39.4s-25.3-15.3-47-20.2l-76.3-17.7c-50.5-11.8-75.8-38.2-75.8-79.2 0-27.6 10.4-49.6 31.2-66.2 20.8-16.6 48-24.8 81.4-24.8 32.4-.1 59 7.9 80.2 24z"/></symbol><symbol id="titles__tool" viewBox="0 0 1440 340"><path d="M153.5 28.6v306.1H128V28.6H0V6h281.5v22.6h-128zm395.8 21.3c32.4 32.9 48.6 73 48.6 120.4 0 47.7-16.2 88-48.6 120.7s-72.1 49-119.2 49c-47.4 0-87.3-16.3-119.7-49s-48.6-72.9-48.6-120.7c0-47.4 16.3-87.5 48.8-120.4C343.2 17 383.1.6 430.1.6S517 17 549.3 49.9zm-17.4 224.9c27.6-28.1 41.4-62.9 41.4-104.5 0-41.2-13.8-75.9-41.4-104.2-27.6-28.3-61.6-42.4-101.8-42.4-40.5 0-74.6 14.1-102.3 42.4-27.6 28.3-41.4 63-41.4 104.2 0 41.5 13.8 76.3 41.4 104.5 27.6 28.1 61.7 42.2 102.3 42.2 40.3-.1 74.2-14.1 101.8-42.2zM898 49.9c32.4 32.9 48.6 73 48.6 120.4 0 47.7-16.2 88-48.6 120.7-32.4 32.7-72.1 49-119.2 49-47.4 0-87.3-16.3-119.7-49-32.4-32.7-48.6-72.9-48.6-120.7 0-47.4 16.3-87.5 48.8-120.4C692 17 731.8.6 778.9.6c47 0 86.8 16.4 119.1 49.3zm-17.4 224.9c27.6-28.1 41.4-62.9 41.4-104.5 0-41.2-13.8-75.9-41.4-104.2-27.6-28.3-61.5-42.5-101.7-42.5-40.5 0-74.6 14.1-102.3 42.4-27.6 28.3-41.4 63-41.4 104.2 0 41.5 13.8 76.3 41.4 104.5 27.6 28.1 61.7 42.2 102.3 42.2 40.2 0 74.1-14 101.7-42.1zm318.1 59.8H975.5V6h25v306h198.2v22.6zm195.9-310c21.1 16 34.4 37.3 40 63.8l-24.5 5.9c-4.3-21.9-14.9-39.4-31.9-52.5-17-13.1-38.4-19.6-64.3-19.6-24.9 0-45.2 6.2-61.1 18.6-15.9 12.4-23.8 29.1-23.8 50 0 16.7 5 29.3 15 38s24.4 15.1 43.4 19.4l72.1 17.2c11.4 2.3 21.5 5.2 30.2 8.8 8.7 3.6 17 8.5 25 14.7 8 6.2 14.2 14.1 18.6 23.8 4.4 9.6 6.6 20.8 6.6 33.6 0 28.4-10.7 51.2-32.1 68.2-21.4 17-49.8 25.5-85.1 25.5-36 0-66.1-8.7-90.2-26.2s-38.1-41.3-41.7-71.4l26.5-5.9c2.9 25.2 14.2 45 33.8 59.6 19.6 14.6 44.1 21.8 73.6 21.8 27.8 0 49.9-6.4 66.2-19.1 16.3-12.8 24.5-29.9 24.5-51.5 0-17.7-4.8-30.7-14.5-39.2-9.6-8.5-25.3-15.2-46.8-20.1l-76-17.7c-50.4-11.8-75.5-38.1-75.5-79 0-27.5 10.4-49.5 31.1-66C1254.5 8.8 1281.5.5 1314.9.5c32.1.1 58.6 8.1 79.7 24.1z"/></symbol></svg>