<svg xmlns="http://www.w3.org/2000/svg" viewBox="0 0 20 20">
  <defs/>
  <path d="M17.6 0H2.4C1.1 0 0 1.1 0 2.4v15.3C0 18.9 1.1 20 2.4 20h15.2c1.3 0 2.4-1.1 2.4-2.4V2.4C20 1.1 18.9 0 17.6 0zm-3.2 3.1c0-.3.3-.6.6-.6h1.9c.3 0 .6.3.6.6V5c0 .3-.3.6-.6.6H15c-.3 0-.6-.3-.6-.6V3.1zM10 6.2c2.1 0 3.8 1.7 3.8 3.8 0 2.1-1.7 3.8-3.8 3.8-2.1 0-3.8-1.7-3.8-3.8 0-2.1 1.7-3.8 3.8-3.8zm8.1 11.3c0 .3-.3.6-.6.6h-15c-.3 0-.6-.3-.6-.6V8.1h2.5c-.4.5-.5 1.4-.5 1.9 0 3.3 2.7 6.1 6.1 6.1 3.4 0 6.1-2.7 6.1-6.1 0-.6-.1-1.4-.5-1.9h2.5v9.4z"/>
</svg>
