<svg xmlns="http://www.w3.org/2000/svg" viewBox="0 0 538 143">
  <defs/>
  <path d="M460.6 51.1c.4 0 .7.2 1 .6.3.3.4.7.4 1.3 0 .7-.2 1.2-.6 1.6-.4.4-1.1.6-1.9.6h-3.9v-7.8h3.9c.7 0 1.3.2 1.7.6.4.4.6.9.6 1.6 0 .5-.1.8-.4 1.1-.3.1-.6.3-.8.4zm-3.5-.6h2c.3 0 .6-.1.8-.3.2-.2.3-.4.3-.7 0-.3-.1-.5-.3-.7-.2-.2-.4-.3-.7-.3h-2.1v2zm2.1 3.2c.4 0 .6-.1.8-.3.2-.2.3-.4.3-.7 0-.3-.1-.5-.3-.7-.2-.2-.4-.3-.7-.3h-2.2v1.9h2.1zM469 55.1l-.7-1.7h-3.5l-.7 1.7h-1.7l3.4-7.8h1.5l3.4 7.8H469zm-2.4-6l-1.1 2.8h2.3l-1.2-2.8zM476.3 47.7c.6.4.9 1 1.1 1.7l-1.6.3c-.1-.4-.2-.7-.5-.9-.3-.2-.6-.3-1-.3s-.7.1-.9.3c-.2.2-.4.4-.4.7 0 .4.3.7.8.8l1.7.3c.6.1 1.2.4 1.5.8.4.4.5.9.5 1.5 0 .8-.3 1.4-.9 1.8-.6.4-1.3.7-2.3.7-.9 0-1.6-.2-2.2-.6-.6-.4-1-1-1.1-1.7l1.7-.3c.2.9.8 1.3 1.8 1.3.4 0 .8-.1 1-.3.2-.2.4-.4.4-.7 0-.2-.1-.4-.2-.5-.1-.1-.4-.2-.7-.3l-1.7-.3c-1.4-.3-2.1-1-2.1-2.2 0-.7.3-1.3.8-1.7.5-.4 1.3-.7 2.2-.7.9-.4 1.5-.2 2.1.3zM486.4 52.9c-.2.5-.6 1-1 1.4l1.4 1.6-1.2 1.1-1.7-1.9c-.4.1-.8.2-1.3.2-1.2 0-2.1-.4-2.9-1.2-.8-.8-1.2-1.8-1.2-2.9 0-1.1.4-2.1 1.2-2.9.8-.8 1.8-1.2 2.9-1.2s2.1.4 2.9 1.2 1.2 1.8 1.2 2.9c0 .6-.1 1.1-.3 1.7zm-5.6.1c.5.5 1.1.7 1.8.7s1.3-.2 1.8-.7c.5-.5.7-1.1.7-1.8s-.2-1.4-.7-1.9c-.5-.5-1.1-.7-1.8-.7s-1.3.2-1.8.7c-.5.5-.7 1.1-.7 1.9s.2 1.3.7 1.8zM494.8 51.5c0 1.1-.3 2-.9 2.7-.6.7-1.4 1-2.4 1s-1.9-.3-2.5-1c-.6-.7-.9-1.6-.9-2.7v-4.3h1.6v4.3c0 .7.2 1.2.5 1.6.3.4.8.6 1.4.6.5 0 1-.2 1.3-.6.3-.4.5-.9.5-1.6v-4.3h1.6v4.3zM502.3 55.1h-6v-7.8h5.9v1.4h-4.3v1.8h4v1.4h-4v1.8h4.4v1.4zM458.4 61.1c1.3 0 2.3.4 3.1 1.1s1.2 1.7 1.2 2.8c0 1.2-.4 2.1-1.2 2.8s-1.8 1.1-3.1 1.1h-2.9v-7.8h2.9zm0 6.4c.8 0 1.5-.2 2-.7.5-.4.7-1.1.7-1.8s-.2-1.4-.7-1.8c-.5-.4-1.1-.7-2-.7h-1.3v5h1.3zM464 69v-7.8h1.6V69H464zM472.2 61.6c.6.4.9 1 1.1 1.7l-1.6.3c-.1-.4-.2-.7-.5-.9-.3-.2-.6-.3-1-.3s-.7.1-.9.3c-.2.2-.4.4-.4.7 0 .4.3.7.8.8l1.7.3c.6.1 1.2.4 1.5.8.4.4.5.9.5 1.5 0 .8-.3 1.4-.9 1.8-.6.4-1.3.7-2.3.7-.9 0-1.6-.2-2.2-.6-.6-.4-1-1-1.1-1.7l1.7-.3c.2.9.8 1.3 1.8 1.3.4 0 .8-.1 1-.3.2-.2.4-.4.4-.7 0-.2-.1-.4-.2-.5-.1-.1-.4-.2-.7-.3l-1.7-.3c-1.4-.3-2.1-1-2.1-2.2 0-.7.3-1.3.8-1.7.5-.4 1.3-.7 2.2-.7.8-.3 1.5-.1 2.1.3zM478.1 62.6V69h-1.6v-6.4h-2.6v-1.4h6.8v1.4h-2.6zM486.8 69l-2.6-2.9h-.8V69h-1.6v-7.8h3.8c.8 0 1.5.2 2 .7.5.5.8 1.1.8 1.8s-.2 1.2-.6 1.6-1 .7-1.6.8l2.6 2.9h-2zm-1.3-4.3c.4 0 .7-.1.9-.3.2-.2.3-.4.3-.8 0-.3-.1-.6-.3-.8-.2-.2-.5-.3-.9-.3h-2.2v2.1h2.2zM489.7 69v-7.8h1.6V69h-1.6zM498.1 67.2c.4-.3.7-.8.8-1.5l1.5.3c-.2 1-.6 1.8-1.3 2.3s-1.5.8-2.5.8c-1.2 0-2.1-.4-2.9-1.2-.8-.8-1.2-1.8-1.2-2.9 0-1.1.4-2.1 1.2-2.9.8-.8 1.8-1.2 2.9-1.2 1 0 1.8.3 2.5.8s1.2 1.3 1.4 2.2l-1.5.4c-.1-.6-.4-1.1-.8-1.5s-.9-.5-1.5-.5c-.7 0-1.3.2-1.8.7-.5.5-.7 1.1-.7 1.9s.2 1.4.7 1.9c.5.5 1.1.7 1.8.7.5.2 1 0 1.4-.3zM505.1 62.6V69h-1.6v-6.4h-2.6v-1.4h6.8v1.4h-2.6zM518.3 62.2c.8.8 1.2 1.8 1.2 2.9 0 1.1-.4 2.1-1.2 2.9s-1.8 1.2-2.9 1.2-2.1-.4-2.9-1.2c-.8-.8-1.2-1.8-1.2-2.9 0-1.1.4-2.1 1.2-2.9.8-.8 1.8-1.2 2.9-1.2s2.1.4 2.9 1.2zm-1.2 4.7c.5-.5.7-1.1.7-1.8s-.2-1.4-.7-1.9c-.5-.5-1.1-.7-1.8-.7s-1.3.2-1.8.7c-.5.5-.7 1.1-.7 1.9s.2 1.4.7 1.8c.5.5 1.1.7 1.8.7s1.4-.2 1.8-.7zM522.4 64.5h3.8v1.4h-3.8v3h-1.6v-7.8h5.9v1.4h-4.3v2zM460.8 81.1c.4-.3.7-.8.8-1.5l1.5.3c-.2 1-.6 1.8-1.3 2.3s-1.5.8-2.5.8c-1.2 0-2.1-.4-2.9-1.2-.8-.8-1.2-1.8-1.2-2.9 0-1.1.4-2.1 1.2-2.9.8-.8 1.8-1.2 2.9-1.2 1 0 1.8.3 2.5.8s1.2 1.3 1.4 2.2l-1.5.4c-.1-.6-.4-1.1-.8-1.5s-.9-.5-1.5-.5c-.7 0-1.3.2-1.8.7-.5.5-.7 1.1-.7 1.9s.2 1.4.7 1.9c.5.5 1.1.7 1.8.7.5.2 1 0 1.4-.3zM471.2 79.4c0 1.1-.3 2-.9 2.7-.6.7-1.4 1-2.4 1s-1.9-.3-2.5-1c-.6-.7-.9-1.6-.9-2.7v-4.3h1.6v4.3c0 .7.2 1.2.5 1.6.3.4.8.6 1.4.6.5 0 1-.2 1.3-.6.3-.4.5-.9.5-1.6v-4.3h1.6v4.3zM478.4 82.9h-5.6v-7.8h1.6v6.4h4v1.4zM482.2 76.5v6.4h-1.6v-6.4H478v-1.4h6.8v1.4h-2.6zM492.6 79.4c0 1.1-.3 2-.9 2.7-.6.7-1.4 1-2.4 1s-1.9-.3-2.5-1c-.6-.7-.9-1.6-.9-2.7v-4.3h1.6v4.3c0 .7.2 1.2.5 1.6.3.4.8.6 1.4.6.5 0 1-.2 1.3-.6.3-.4.5-.9.5-1.6v-4.3h1.6v4.3zM499.2 82.9l-2.6-2.9h-.8v2.9h-1.6v-7.8h3.8c.8 0 1.5.2 2 .7.5.5.8 1.1.8 1.8s-.2 1.2-.6 1.6-1 .7-1.6.8l2.6 2.9h-2zm-1.3-4.3c.4 0 .7-.1.9-.3.2-.2.3-.4.3-.8 0-.3-.1-.6-.3-.8-.2-.2-.5-.3-.9-.3h-2.2v2.1h2.2zM508 82.9h-6v-7.8h5.9v1.4h-4.3v1.8h4v1.4h-4v1.8h4.4v1.4zM518.1 82.9l-.7-1.7h-3.5l-.7 1.7h-1.7l3.4-7.8h1.5l3.4 7.8h-1.7zm-2.4-5.9l-1.1 2.8h2.3l-1.2-2.8zM527.9 82.9h-1.3l-4.3-5v5h-1.6v-7.8h1.3l4.3 5.2v-5.2h1.6v7.8zM532.4 75.1c1.3 0 2.3.4 3.1 1.1s1.2 1.7 1.2 2.8c0 1.2-.4 2.1-1.2 2.8s-1.8 1.1-3.1 1.1h-2.9v-7.8h2.9zm0 6.4c.8 0 1.5-.2 2-.7.5-.4.7-1.1.7-1.8s-.2-1.4-.7-1.8c-.5-.4-1.1-.7-2-.7h-1.3v5h1.3zM460.8 95c.4-.3.7-.8.8-1.5l1.5.3c-.2 1-.6 1.8-1.3 2.3s-1.5.8-2.5.8c-1.2 0-2.1-.4-2.9-1.2-.8-.8-1.2-1.8-1.2-2.9 0-1.1.4-2.1 1.2-2.9.8-.8 1.8-1.2 2.9-1.2 1 0 1.8.3 2.5.8s1.2 1.3 1.4 2.2l-1.5.4c-.1-.6-.4-1.1-.8-1.5s-.9-.5-1.5-.5c-.7 0-1.3.2-1.8.7-.5.5-.7 1.1-.7 1.9s.2 1.4.7 1.9c.5.5 1.1.7 1.8.7.5.2 1 .1 1.4-.3zM469.5 96.8l-2.6-2.9h-.9v2.9h-1.6V89h3.8c.8 0 1.5.2 2 .7.5.5.8 1.1.8 1.8s-.2 1.2-.6 1.6-1 .7-1.6.8l2.6 2.9h-1.9zm-1.3-4.3c.4 0 .7-.1.9-.3.2-.2.3-.4.3-.8 0-.3-.1-.6-.3-.8-.2-.2-.5-.3-.9-.3H466v2.1h2.2zM478.3 96.8h-6V89h5.9v1.4h-4.3v1.8h4v1.4h-4v1.8h4.4v1.4zM485.5 96.8l-.7-1.7h-3.5l-.7 1.7h-1.7l3.4-7.8h1.5l3.4 7.8h-1.7zm-2.4-5.9l-1.1 2.8h2.3l-1.2-2.8zM490.9 90.4v6.4h-1.6v-6.4h-2.6V89h6.8v1.4h-2.6zM494.6 96.8V89h1.6v7.8h-1.6zM502 96.8h-1.5l-3.4-7.8h1.8l2.4 5.7 2.4-5.7h1.8l-3.5 7.8zM506.3 96.8V89h1.6v7.8h-1.6zM513.2 90.4v6.4h-1.6v-6.4H509V89h6.8v1.4h-2.6zM520.8 96.8h-1.6v-2.5l-3.1-5.4h1.8l2.1 3.7 2.1-3.7h1.8l-3.2 5.3v2.6z"/>
  <g>
    <path d="M157.8 28.4h32.4c17.6 0 28.3 8.1 28.3 22.7 0 7.7-3.1 13.2-9 17.1 8 3.6 11.6 10.4 11.6 18.5 0 17.6-13.6 25.4-30.4 25.4h-33V28.4zm30.6 31.7c3.8 0 5.9-2.6 5.9-6.1 0-3.3-2-5.7-6.1-5.7h-6.7v11.8h6.9zm1.6 32.1c4.3 0 6.8-3.6 6.8-6.8 0-3.3-2.3-6.7-6.5-6.7h-8.9v13.5h8.6zM227.8 28.4h27.3c26.9 0 44.7 15.7 44.7 41.9 0 25.8-17.6 41.9-44.7 41.9h-27.3V28.4zm26.8 63.7c12.2 0 20.5-7.3 20.5-21.8 0-14.7-8.3-21.8-20.5-21.8h-3V92h3zM347.3 26.9c10 0 19.3 3 25.4 7.2l-6.6 20.8c-3.9-3.2-9.7-6.2-17.6-6.2-12.7 0-21.2 9.3-21.2 21.5 0 12.4 8.5 21.8 21.2 21.8 7.9 0 13.6-3 17.6-6.2l6.6 20.8c-6.1 4.2-15.3 7.2-25.4 7.2-27.2 0-44.9-19.3-44.9-43.5s17.7-43.4 44.9-43.4z"/>
    <path d="M414.3 26.9c10 0 19.3 3 25.4 7.2L433 54.9c-3.9-3.2-9.7-6.2-17.6-6.2-12.7 0-21.2 9.3-21.2 21.5 0 12.4 8.5 21.8 21.2 21.8 7.9 0 13.6-3 17.6-6.2l6.6 20.8c-6.1 4.2-15.3 7.2-25.4 7.2-27.2 0-44.9-19.3-44.9-43.5.1-24.2 17.8-43.4 45-43.4z"/>
  </g>
  <path d="M101.6 71.4h41.1l-10-21.4H92.8l29.1-29.1-22.2-8.1-28.3 28.3V0L50 10v40L20.9 20.9l-8 22.2 28.2 28.3H0l10 21.4h40l-29.1 29 22.2 8.1 28.3-28.3v41.1l21.4-10V92.8l29.1 29.1 8-22.2-28.3-28.3z"/>
</svg>
