<?xml version="1.0" encoding="utf-8"?>
<!-- Generator: Adobe Illustrator 22.0.1, SVG Export Plug-In . SVG Version: 6.00 Build 0)  -->
<svg version="1.1" id="Capa_1" xmlns="http://www.w3.org/2000/svg" xmlns:xlink="http://www.w3.org/1999/xlink" x="0px" y="0px"
	 viewBox="0 0 94 30" style="enable-background:new 0 0 94 30;" xml:space="preserve">
<path d="M33.2,6H40c3.7,0,6,1.7,6,4.8c0,1.6-0.7,2.8-1.9,3.6c1.7,0.8,2.4,2.2,2.4,3.9c0,3.7-2.9,5.3-6.4,5.3h-6.9V6z M39.6,12.6
	c0.8,0,1.2-0.6,1.2-1.3c0-0.7-0.4-1.2-1.3-1.2h-1.4v2.5H39.6z M39.9,19.4c0.9,0,1.4-0.8,1.4-1.4c0-0.7-0.5-1.4-1.4-1.4h-1.9v2.8
	H39.9z M47.9,6h5.7c5.7,0,9.4,3.3,9.4,8.8c0,5.4-3.7,8.8-9.4,8.8h-5.7V6z M53.5,19.3c2.6,0,4.3-1.5,4.3-4.6c0-3.1-1.7-4.6-4.3-4.6
	h-0.6v9.2H53.5z M73,5.6c2.1,0,4,0.6,5.3,1.5l-1.4,4.4c-0.8-0.7-2-1.3-3.7-1.3c-2.7,0-4.4,2-4.4,4.5c0,2.6,1.8,4.6,4.4,4.6
	c1.7,0,2.9-0.6,3.7-1.3l1.4,4.4c-1.3,0.9-3.2,1.5-5.3,1.5c-5.7,0-9.4-4-9.4-9.2C63.6,9.7,67.3,5.6,73,5.6z M87.1,5.6
	c2.1,0,4,0.6,5.3,1.5L91,11.5c-0.8-0.7-2-1.3-3.7-1.3c-2.7,0-4.4,2-4.4,4.5c0,2.6,1.8,4.6,4.4,4.6c1.7,0,2.9-0.6,3.7-1.3l1.4,4.4
	c-1.3,0.9-3.2,1.5-5.3,1.5c-5.7,0-9.4-4-9.4-9.2C77.6,9.7,81.4,5.6,87.1,5.6z"/>
</svg>
