<?xml version="1.0" encoding="utf-8"?>
<!-- Generator: Adobe Illustrator 22.0.1, SVG Export Plug-In . SVG Version: 6.00 Build 0)  -->
<svg version="1.1" id="Capa_1" xmlns="http://www.w3.org/2000/svg" xmlns:xlink="http://www.w3.org/1999/xlink" x="0px" y="0px"
	 viewBox="0 0 174 150" style="enable-background:new 0 0 174 150;" xml:space="preserve">
<path d="M83,139.4c0.2,0,0.4,0.1,0.6,0.3c0.2,0.2,0.2,0.4,0.2,0.7c0,0.4-0.1,0.7-0.4,0.9c-0.2,0.2-0.6,0.3-1.1,0.3h-2.3v-4.6h2.2
	c0.4,0,0.7,0.1,1,0.3c0.2,0.2,0.4,0.5,0.4,0.9c0,0.3-0.1,0.5-0.2,0.6C83.3,139.3,83.2,139.4,83,139.4L83,139.4z M81,139.1h1.2
	c0.2,0,0.3-0.1,0.4-0.2c0.1-0.1,0.2-0.2,0.2-0.4c0-0.2-0.1-0.3-0.2-0.4c-0.1-0.1-0.2-0.2-0.4-0.2H81V139.1z M82.3,141
	c0.2,0,0.4-0.1,0.5-0.2c0.1-0.1,0.2-0.2,0.2-0.4c0-0.2-0.1-0.3-0.2-0.4c-0.1-0.1-0.3-0.2-0.4-0.2H81v1.1H82.3z M87.9,141.8l-0.4-1
	h-2l-0.4,1h-1l2-4.6H87l2,4.6H87.9z M86.5,138.3l-0.7,1.6h1.3L86.5,138.3z M92.2,137.5c0.3,0.2,0.5,0.6,0.6,1l-0.9,0.2
	c0-0.2-0.1-0.4-0.3-0.5c-0.2-0.1-0.4-0.2-0.6-0.2c-0.2,0-0.4,0.1-0.5,0.2c-0.1,0.1-0.2,0.2-0.2,0.4c0,0.3,0.2,0.4,0.5,0.5l1,0.2
	c0.4,0.1,0.7,0.2,0.9,0.5c0.2,0.2,0.3,0.5,0.3,0.9c0,0.4-0.2,0.8-0.5,1c-0.3,0.3-0.8,0.4-1.3,0.4c-0.5,0-0.9-0.1-1.3-0.4
	c-0.4-0.2-0.6-0.6-0.6-1l1-0.2c0.1,0.5,0.5,0.7,1,0.7c0.3,0,0.5-0.1,0.6-0.2s0.2-0.2,0.2-0.4c0-0.1,0-0.2-0.1-0.3s-0.2-0.1-0.4-0.2
	l-1-0.2c-0.8-0.2-1.2-0.6-1.2-1.3c0-0.4,0.2-0.7,0.5-1c0.3-0.3,0.7-0.4,1.3-0.4C91.5,137.1,91.9,137.2,92.2,137.5z M98.1,140.5
	c-0.1,0.3-0.3,0.6-0.6,0.8l0.8,1l-0.7,0.7l-1-1.1c-0.2,0.1-0.5,0.1-0.7,0.1c-0.7,0-1.2-0.2-1.7-0.7c-0.5-0.5-0.7-1-0.7-1.7
	c0-0.7,0.2-1.2,0.7-1.7c0.5-0.5,1-0.7,1.7-0.7c0.7,0,1.2,0.2,1.7,0.7c0.5,0.5,0.7,1,0.7,1.7C98.3,139.9,98.2,140.2,98.1,140.5z
	 M94.8,140.6c0.3,0.3,0.6,0.4,1,0.4c0.4,0,0.8-0.1,1-0.4c0.3-0.3,0.4-0.6,0.4-1.1c0-0.4-0.1-0.8-0.4-1.1c-0.3-0.3-0.6-0.4-1-0.4
	c-0.4,0-0.8,0.1-1,0.4c-0.3,0.3-0.4,0.7-0.4,1.1C94.4,139.9,94.5,140.3,94.8,140.6z M103,139.7c0,0.6-0.2,1.2-0.5,1.6
	c-0.4,0.4-0.8,0.6-1.4,0.6c-0.6,0-1.1-0.2-1.5-0.6c-0.4-0.4-0.6-0.9-0.6-1.6v-2.5h0.9v2.5c0,0.4,0.1,0.7,0.3,0.9
	c0.2,0.2,0.5,0.3,0.8,0.3c0.3,0,0.6-0.1,0.7-0.3c0.2-0.2,0.3-0.5,0.3-0.9v-2.5h0.9V139.7z M107.3,141.8h-3.5v-4.6h3.5v0.8h-2.5v1
	h2.3v0.8h-2.3v1h2.5V141.8z M111.5,137.2c0.8,0,1.4,0.2,1.8,0.6c0.5,0.4,0.7,1,0.7,1.7c0,0.7-0.2,1.2-0.7,1.7
	c-0.5,0.4-1.1,0.6-1.8,0.6h-1.7v-4.6H111.5z M111.5,140.9c0.5,0,0.9-0.1,1.1-0.4c0.3-0.3,0.4-0.6,0.4-1.1c0-0.4-0.1-0.8-0.4-1.1
	c-0.3-0.3-0.7-0.4-1.1-0.4h-0.8v2.9H111.5z M114.8,141.8v-4.6h0.9v4.6H114.8z M119.5,137.5c0.3,0.2,0.5,0.6,0.6,1l-0.9,0.2
	c0-0.2-0.1-0.4-0.3-0.5c-0.2-0.1-0.4-0.2-0.6-0.2c-0.2,0-0.4,0.1-0.5,0.2c-0.1,0.1-0.2,0.2-0.2,0.4c0,0.3,0.2,0.4,0.5,0.5l1,0.2
	c0.4,0.1,0.7,0.2,0.9,0.5c0.2,0.2,0.3,0.5,0.3,0.9c0,0.4-0.2,0.8-0.5,1c-0.3,0.3-0.8,0.4-1.3,0.4c-0.5,0-0.9-0.1-1.3-0.4
	c-0.4-0.2-0.6-0.6-0.6-1l1-0.2c0.1,0.5,0.5,0.7,1,0.7c0.3,0,0.5-0.1,0.6-0.2s0.2-0.2,0.2-0.4c0-0.1,0-0.2-0.1-0.3s-0.2-0.1-0.4-0.2
	l-1-0.2c-0.8-0.2-1.2-0.6-1.2-1.3c0-0.4,0.2-0.7,0.5-1c0.3-0.3,0.7-0.4,1.3-0.4C118.8,137.1,119.2,137.2,119.5,137.5z M123,138v3.7
	h-0.9V138h-1.5v-0.8h4v0.8H123z M128.1,141.8l-1.5-1.7h-0.5v1.7h-0.9v-4.6h2.2c0.5,0,0.9,0.1,1.2,0.4c0.3,0.3,0.4,0.6,0.4,1
	c0,0.4-0.1,0.7-0.4,1c-0.2,0.3-0.6,0.4-1,0.5l1.5,1.7H128.1z M127.3,139.3c0.2,0,0.4-0.1,0.5-0.2c0.1-0.1,0.2-0.3,0.2-0.4
	c0-0.2-0.1-0.3-0.2-0.4c-0.1-0.1-0.3-0.2-0.5-0.2h-1.3v1.2H127.3z M129.7,141.8v-4.6h0.9v4.6H129.7z M134.7,140.7
	c0.2-0.2,0.4-0.5,0.5-0.9l0.9,0.2c-0.1,0.6-0.4,1-0.8,1.3c-0.4,0.3-0.9,0.5-1.5,0.5c-0.7,0-1.2-0.2-1.7-0.7c-0.5-0.5-0.7-1-0.7-1.7
	c0-0.7,0.2-1.2,0.7-1.7c0.5-0.5,1-0.7,1.7-0.7c0.6,0,1,0.2,1.5,0.5c0.4,0.3,0.7,0.7,0.8,1.3l-0.9,0.3c-0.1-0.4-0.2-0.7-0.5-0.9
	c-0.2-0.2-0.5-0.3-0.9-0.3c-0.4,0-0.8,0.1-1,0.4c-0.3,0.3-0.4,0.6-0.4,1.1c0,0.4,0.1,0.8,0.4,1.1c0.3,0.3,0.6,0.4,1,0.4
	C134.1,141,134.4,140.9,134.7,140.7z M138.7,138v3.7h-0.9V138h-1.5v-0.8h4v0.8H138.7z M146.4,137.8c0.5,0.5,0.7,1,0.7,1.7
	c0,0.7-0.2,1.2-0.7,1.7c-0.5,0.5-1,0.7-1.7,0.7c-0.7,0-1.2-0.2-1.7-0.7c-0.5-0.5-0.7-1-0.7-1.7c0-0.7,0.2-1.2,0.7-1.7
	c0.5-0.5,1-0.7,1.7-0.7C145.4,137.1,145.9,137.3,146.4,137.8z M145.7,140.6c0.3-0.3,0.4-0.6,0.4-1.1c0-0.4-0.1-0.8-0.4-1.1
	c-0.3-0.3-0.6-0.4-1-0.4c-0.4,0-0.8,0.1-1,0.4c-0.3,0.3-0.4,0.7-0.4,1.1c0,0.4,0.1,0.8,0.4,1.1c0.3,0.3,0.6,0.4,1,0.4
	C145.1,141,145.5,140.9,145.7,140.6z M148.8,139.2h2.2v0.8h-2.2v1.8h-0.9v-4.6h3.4v0.8h-2.5V139.2z M83.2,148.8
	c0.2-0.2,0.4-0.5,0.5-0.9l0.9,0.2c-0.1,0.6-0.4,1-0.8,1.3c-0.4,0.3-0.9,0.5-1.5,0.5c-0.7,0-1.2-0.2-1.7-0.7c-0.5-0.5-0.7-1-0.7-1.7
	c0-0.7,0.2-1.2,0.7-1.7c0.5-0.5,1-0.7,1.7-0.7c0.6,0,1,0.2,1.5,0.5c0.4,0.3,0.7,0.7,0.8,1.3l-0.9,0.3c-0.1-0.4-0.2-0.7-0.5-0.9
	s-0.5-0.3-0.9-0.3c-0.4,0-0.8,0.1-1,0.4c-0.3,0.3-0.4,0.6-0.4,1.1c0,0.4,0.1,0.8,0.4,1.1c0.3,0.3,0.6,0.4,1,0.4
	C82.6,149.1,82.9,149,83.2,148.8z M89.2,147.8c0,0.6-0.2,1.2-0.5,1.6c-0.4,0.4-0.8,0.6-1.4,0.6c-0.6,0-1.1-0.2-1.5-0.6
	c-0.4-0.4-0.6-0.9-0.6-1.6v-2.5h0.9v2.5c0,0.4,0.1,0.7,0.3,0.9c0.2,0.2,0.5,0.3,0.8,0.3c0.3,0,0.6-0.1,0.7-0.3
	c0.2-0.2,0.3-0.5,0.3-0.9v-2.5h0.9V147.8z M93.4,149.9h-3.3v-4.6h0.9v3.7h2.4V149.9z M95.6,146.2v3.7h-0.9v-3.7h-1.5v-0.8h4v0.8
	H95.6z M101.7,147.8c0,0.6-0.2,1.2-0.5,1.6c-0.4,0.4-0.8,0.6-1.4,0.6c-0.6,0-1.1-0.2-1.5-0.6c-0.4-0.4-0.6-0.9-0.6-1.6v-2.5h0.9v2.5
	c0,0.4,0.1,0.7,0.3,0.9c0.2,0.2,0.5,0.3,0.8,0.3c0.3,0,0.6-0.1,0.7-0.3c0.2-0.2,0.3-0.5,0.3-0.9v-2.5h0.9V147.8z M105.5,149.9
	l-1.5-1.7h-0.5v1.7h-0.9v-4.6h2.2c0.5,0,0.9,0.1,1.2,0.4c0.3,0.3,0.4,0.6,0.4,1c0,0.4-0.1,0.7-0.4,1c-0.2,0.3-0.6,0.4-1,0.5l1.5,1.7
	H105.5z M104.8,147.4c0.2,0,0.4-0.1,0.5-0.2c0.1-0.1,0.2-0.3,0.2-0.4c0-0.2-0.1-0.3-0.2-0.4c-0.1-0.1-0.3-0.2-0.5-0.2h-1.3v1.2
	H104.8z M110.7,149.9h-3.5v-4.6h3.5v0.8h-2.5v1h2.3v0.8h-2.3v1h2.5V149.9z M116.5,149.9l-0.4-1h-2l-0.4,1h-1l2-4.6h0.9l2,4.6H116.5z
	 M115.1,146.5l-0.7,1.6h1.3L115.1,146.5z M122.2,149.9h-0.8l-2.5-2.9v2.9H118v-4.6h0.8l2.5,3v-3h0.9V149.9z M124.9,145.3
	c0.8,0,1.4,0.2,1.8,0.6c0.5,0.4,0.7,1,0.7,1.7c0,0.7-0.2,1.2-0.7,1.7c-0.5,0.4-1.1,0.6-1.8,0.6h-1.7v-4.6H124.9z M124.9,149.1
	c0.5,0,0.9-0.1,1.1-0.4c0.3-0.3,0.4-0.6,0.4-1.1c0-0.4-0.1-0.8-0.4-1.1c-0.3-0.3-0.7-0.4-1.1-0.4h-0.8v2.9H124.9z M132.9,148.8
	c0.2-0.2,0.4-0.5,0.5-0.9l0.9,0.2c-0.1,0.6-0.4,1-0.8,1.3c-0.4,0.3-0.9,0.5-1.5,0.5c-0.7,0-1.2-0.2-1.7-0.7c-0.5-0.5-0.7-1-0.7-1.7
	c0-0.7,0.2-1.2,0.7-1.7c0.5-0.5,1-0.7,1.7-0.7c0.6,0,1,0.2,1.5,0.5c0.4,0.3,0.7,0.7,0.8,1.3l-0.9,0.3c-0.1-0.4-0.2-0.7-0.5-0.9
	c-0.2-0.2-0.5-0.3-0.9-0.3c-0.4,0-0.8,0.1-1,0.4c-0.3,0.3-0.4,0.6-0.4,1.1c0,0.4,0.1,0.8,0.4,1.1c0.3,0.3,0.6,0.4,1,0.4
	C132.3,149.1,132.6,149,132.9,148.8z M137.9,149.9l-1.5-1.7h-0.5v1.7H135v-4.6h2.2c0.5,0,0.9,0.1,1.2,0.4c0.3,0.3,0.4,0.6,0.4,1
	c0,0.4-0.1,0.7-0.4,1c-0.2,0.3-0.6,0.4-1,0.5l1.5,1.7H137.9z M137.2,147.4c0.2,0,0.4-0.1,0.5-0.2c0.1-0.1,0.2-0.3,0.2-0.4
	c0-0.2-0.1-0.3-0.2-0.4c-0.1-0.1-0.3-0.2-0.5-0.2h-1.3v1.2H137.2z M143.1,149.9h-3.5v-4.6h3.5v0.8h-2.5v1h2.3v0.8h-2.3v1h2.5V149.9z
	 M147.2,149.9l-0.4-1h-2l-0.4,1h-1l2-4.6h0.9l2,4.6H147.2z M145.8,146.5l-0.7,1.6h1.3L145.8,146.5z M150.4,146.2v3.7h-0.9v-3.7H148
	v-0.8h4v0.8H150.4z M152.6,149.9v-4.6h0.9v4.6H152.6z M156.9,149.9H156l-2-4.6h1l1.4,3.3l1.4-3.3h1L156.9,149.9z M159.4,149.9v-4.6
	h0.9v4.6H159.4z M163.4,146.2v3.7h-0.9v-3.7H161v-0.8h4v0.8H163.4z M167.9,149.9h-0.9v-1.4l-1.8-3.1h1l1.2,2.2l1.2-2.2h1.1l-1.8,3.1
	V149.9z M53.3,37.4h21.6l-5.2-11.2h-21l15.3-15.3L52.3,6.7L37.4,21.6V0L26.2,5.2v21L11,11L6.7,22.6l14.8,14.8H0l5.2,11.2h21L11,63.9
	l11.6,4.2l14.8-14.8v21.6l11.2-5.2v-21l15.3,15.3l4.2-11.6L53.3,37.4L53.3,37.4z M77.9,11.4h21.8c11.8,0,19.1,5.5,19.1,15.3
	c0,5.2-2.1,8.9-6,11.5c5.4,2.4,7.8,7,7.8,12.5c0,11.8-9.2,17.1-20.5,17.1H77.9V11.4z M98.5,32.7c2.6,0,3.9-1.8,3.9-4.1
	c0-2.3-1.4-3.9-4.1-3.9h-4.5v8H98.5z M99.6,54.3c2.9,0,4.6-2.4,4.6-4.6c0-2.3-1.5-4.5-4.3-4.5h-6v9.1H99.6z M125,11.4h18.4
	c18.1,0,30.1,10.5,30.1,28.2c0,17.4-11.8,28.2-30.1,28.2H125V11.4z M143.1,54.2c8.2,0,13.8-4.9,13.8-14.7c0-9.9-5.6-14.7-13.8-14.7
	h-2v29.3H143.1z M103,70.9c6.8,0,13,2,17.1,4.8l-4.4,14c-2.7-2.2-6.5-4.2-11.8-4.2c-8.5,0-14.3,6.3-14.3,14.5
	c0,8.4,5.7,14.7,14.3,14.7c5.3,0,9.2-2,11.8-4.2l4.4,14c-4.1,2.8-10.3,4.8-17.1,4.8c-18.3,0-30.2-13-30.2-29.3
	C72.8,83.9,84.7,70.9,103,70.9z M148.1,70.9c6.8,0,13,2,17.1,4.8l-4.4,14c-2.7-2.2-6.5-4.2-11.8-4.2c-8.5,0-14.3,6.3-14.3,14.5
	c0,8.4,5.7,14.7,14.3,14.7c5.3,0,9.2-2,11.8-4.2l4.4,14c-4.1,2.8-10.3,4.8-17.1,4.8c-18.3,0-30.2-13-30.2-29.3
	C117.9,83.9,129.8,70.9,148.1,70.9z"/>
</svg>
