<svg viewBox="0 0 94 30">
  <defs/>
  <path d="M33.2 6H40c3.7 0 6 1.7 6 4.8 0 1.6-.7 2.8-1.9 3.6 1.7.8 2.4 2.2 2.4 3.9 0 3.7-2.9 5.3-6.4 5.3h-6.9V6zm6.4 6.6c.8 0 1.2-.6 1.2-1.3 0-.7-.4-1.2-1.3-1.2h-1.4v2.5h1.5zm.3 6.8c.9 0 1.4-.8 1.4-1.4 0-.7-.5-1.4-1.4-1.4H38v2.8h1.9zM47.9 6h5.7c5.7 0 9.4 3.3 9.4 8.8 0 5.4-3.7 8.8-9.4 8.8h-5.7V6zm5.6 13.3c2.6 0 4.3-1.5 4.3-4.6 0-3.1-1.7-4.6-4.3-4.6h-.6v9.2h.6zM73 5.6c2.1 0 4 .6 5.3 1.5l-1.4 4.4c-.8-.7-2-1.3-3.7-1.3-2.7 0-4.4 2-4.4 4.5 0 2.6 1.8 4.6 4.4 4.6 1.7 0 2.9-.6 3.7-1.3l1.4 4.4c-1.3.9-3.2 1.5-5.3 1.5-5.7 0-9.4-4-9.4-9.2 0-5 3.7-9.1 9.4-9.1z"/>
  <path d="M87.1 5.6c2.1 0 4 .6 5.3 1.5L91 11.5c-.8-.7-2-1.3-3.7-1.3-2.7 0-4.4 2-4.4 4.5 0 2.6 1.8 4.6 4.4 4.6 1.7 0 2.9-.6 3.7-1.3l1.4 4.4c-1.3.9-3.2 1.5-5.3 1.5-5.7 0-9.4-4-9.4-9.2-.1-5 3.7-9.1 9.4-9.1zM21.4 15H30l-2.1-4.5h-8.4l6.1-6.1-4.7-1.7L15 8.6V0l-4.5 2.1v8.4L4.4 4.4 2.7 9.1 8.6 15H0l2.1 4.5h8.4l-6.1 6.1 4.7 1.7 5.9-5.9V30l4.5-2.1v-8.4l6.1 6.1 1.7-4.7-5.9-5.9z"/>
</svg>
