<svg viewBox="0 0 925 261">
  <defs/>
  <path d="M185.4 130.2h74.9l-18.2-39.1h-72.9l53-53-40.4-14.8-51.6 51.6V0L91.1 18.2v72.9L38.2 38.2 23.5 78.7l51.4 51.5H0l18.2 39h72.9l-52.9 52.9 40.5 14.8 51.5-51.5v74.9l39-18.2v-72.9l53 53 14.8-40.4-51.6-51.6zm85.5-90.7h75.9c41.2 0 66.4 19 66.4 53.2 0 17.9-7.3 30.8-21 40 18.8 8.4 27.2 24.4 27.2 43.4 0 41.2-31.9 59.4-71.1 59.4H271v-196zm71.7 74.2c9 0 13.7-6.2 13.7-14.3 0-7.8-4.8-13.4-14.3-13.4h-15.7v27.7h16.3zm3.6 75.1c10.1 0 16-8.4 16-16 0-7.8-5.3-15.7-15.1-15.7h-20.7v31.6h19.8zm86.1-149.3h63.8c63 0 104.7 36.7 104.7 98 0 60.5-41.2 98-104.7 98h-63.8v-196zm62.8 149c28.6 0 47.9-17.1 47.9-51 0-34.4-19.3-51-47.9-51h-7v101.9h7zM708.9 38.3c23.5 0 45.1 7 59.4 16.8l-15.4 48.7c-9.2-7.6-22.7-14.6-41.2-14.6-29.7 0-49.6 21.8-49.6 50.4 0 29.1 19.9 51 49.6 51 18.5 0 31.9-7 41.2-14.6l15.4 48.7c-14.3 9.8-35.8 16.8-59.4 16.8-63.6 0-105-45.1-105-101.9 0-56.2 41.4-101.3 105-101.3z"/>
  <path d="M865.6 38.3c23.5 0 45.1 7 59.4 16.8l-15.4 48.7c-9.2-7.6-22.7-14.6-41.2-14.6-29.7 0-49.6 21.8-49.6 50.4 0 29.1 19.9 51 49.6 51 18.5 0 31.9-7 41.2-14.6l15.4 48.7c-14.3 9.8-35.8 16.8-59.4 16.8-63.6 0-105-45.1-105-101.9 0-56.2 41.5-101.3 105-101.3z"/>
</svg>
