<svg xmlns="http://www.w3.org/2000/svg" viewBox="0 0 600 448">
  <defs/>
  <path d="M184.4 129.5h74.5l-18.1-38.9h-72.5L221 37.9l-40.2-14.7-51.3 51.3V0L90.6 18.1v72.5L38 38 23.3 78.3l51.2 51.2H0l18.1 38.8h72.5L38 220.9l40.3 14.7 51.2-51.2v74.5l38.8-18.1v-72.5L221 221l14.7-40.2-51.3-51.3zM269.5 39.3H345c40.9 0 66 18.9 66 52.9 0 17.8-7.2 30.6-20.9 39.8 18.7 8.4 27 24.2 27 43.2 0 40.9-31.7 59-70.7 59h-76.9V39.3zm71.2 73.8c8.9 0 13.6-6.1 13.6-14.2 0-7.8-4.7-13.4-14.2-13.4h-15.6v27.6h16.2zm3.7 74.6c10 0 15.9-8.4 15.9-15.9 0-7.8-5.3-15.6-15-15.6h-20.6v31.5h19.7zM432.4 39.3h63.5c62.7 0 104.1 36.5 104.1 97.5 0 60.1-40.9 97.5-104.1 97.5h-63.5v-195zm62.3 148.2c28.4 0 47.6-17 47.6-50.7 0-34.3-19.2-50.7-47.6-50.7h-7v101.4h7zM356.3 245.3c23.4 0 44.8 7 59 16.7L400 310.4c-9.2-7.5-22.6-14.5-40.9-14.5-29.5 0-49.3 21.7-49.3 50.1 0 29 19.8 50.7 49.3 50.7 18.4 0 31.7-7 40.9-14.5l15.3 48.5c-14.2 9.7-35.6 16.7-59 16.7-63.2 0-104.4-44.8-104.4-101.4-.1-55.9 41.1-100.7 104.4-100.7z"/>
  <path d="M512.2 245.3c23.4 0 44.8 7 59 16.7l-15.3 48.5C546.7 303 533.3 296 515 296c-29.5 0-49.3 21.7-49.3 50.1 0 29 19.8 50.7 49.3 50.7 18.4 0 31.7-7 40.9-14.5l15.3 48.5c-14.2 9.7-35.6 16.7-59 16.7-63.2 0-104.4-44.8-104.4-101.4 0-56 41.2-100.8 104.4-100.8z"/>
</svg>
