<?xml version="1.0" encoding="utf-8"?>
<!-- Generator: Adobe Illustrator 22.0.1, SVG Export Plug-In . SVG Version: 6.00 Build 0)  -->
<svg version="1.1" id="Capa_1" xmlns="http://www.w3.org/2000/svg" xmlns:xlink="http://www.w3.org/1999/xlink" x="0px" y="0px"
	 viewBox="0 0 1440 350" style="enable-background:new 0 0 1440 350;" xml:space="preserve">
<path d="M260.9,344.6l-40.2-89.7H33.5l-40.7,89.7h-26.5L115.8,16.3h22.1l149.5,328.3H260.9z M127.1,47.7L43.8,232.4h166.6
	L127.1,47.7z M385.8,16.3c57.2,0,101.8,15.6,134,46.8c32.2,31.2,48.3,70.3,48.3,117.4c0,47-16.1,86.2-48.3,117.4
	c-32.2,31.2-76.8,46.8-134,46.8H282.9V16.3H385.8z M385.3,322.1c50,0,88.9-13.5,116.6-40.4s41.7-60.7,41.7-101.2
	c0-40.5-13.9-74.2-41.7-101.2s-66.6-40.4-116.6-40.4h-77.4v283.2H385.3z M709.2,344.6h-23L541.6,16.3h27l128.9,294l129.4-294h27
	L709.2,344.6z M852.3,344.6V16.3h25v328.3H852.3z M1146.1,304.4c23-15,39.4-35.4,49.2-61.2l24,5.9c-11.1,31-30.4,55.6-57.8,73.7
	c-27.4,18.1-59.5,27.2-96,27.2c-47.4,0-87.4-16.4-120.1-49.2s-49-72.9-49-120.3s16.3-87.5,49-120.3s72.7-49.2,120.1-49.2
	c36.6,0,68.6,9,96,27s46.7,42.1,57.8,72.5l-23.5,7.4c-9.5-25.8-25.8-46.2-49-61.3c-23.2-15-50.3-22.5-81.3-22.5
	c-40.5,0-74.7,14.1-102.7,42.4c-27.9,28.3-41.9,63-41.9,104.1c0,41.2,14,75.9,41.9,104.1c27.9,28.3,62.1,42.4,102.7,42.4
	C1096.2,327,1123,319.5,1146.1,304.4z M1263.4,168.7h195.5v22.1h-195.5v131.3h210.2v22.5h-235.2V16.3h235.2v22.5h-210.2V168.7z"/>
</svg>
