<?xml version="1.0" encoding="utf-8"?>
<!-- Generator: Adobe Illustrator 22.0.1, SVG Export Plug-In . SVG Version: 6.00 Build 0)  -->
<svg version="1.1" id="Capa_1" xmlns="http://www.w3.org/2000/svg" xmlns:xlink="http://www.w3.org/1999/xlink" x="0px" y="0px"
	 viewBox="0 0 1440 350" style="enable-background:new 0 0 1440 350;" xml:space="preserve">
<path d="M497.3,38.8h79.4v283.2H515L375.8,16.3h-22L204.3,344.6h26.5l40.7-89.7h187.2l38.7,86.4v3.3h1.5h26.5H681v-22.5h-79.4V38.8
	H681V16.3H497.3V38.8z M281.7,232.4L365,47.7l83.3,184.7H281.7z M929.7,63.1c-32.2-31.2-76.8-46.8-134-46.8H692.8v328.3h102.9
	c57.2,0,101.8-15.6,134-46.8c32.2-31.2,48.3-70.3,48.3-117.4C978,133.4,961.9,94.3,929.7,63.1z M911.8,281.6
	c-27.8,27-66.6,40.4-116.6,40.4h-77.4V38.8h77.4c50,0,88.9,13.5,116.6,40.4c27.8,27,41.7,60.7,41.7,101.2
	C953.5,221,939.6,254.7,911.8,281.6z M1235.7,256.4c0,28.4-10.7,51.1-32.1,68.1c-21.4,17-49.7,25.5-85,25.5
	c-35.9,0-66-8.7-90.2-26.2c-24.2-17.5-38.1-41.2-41.7-71.3l26.5-5.9c2.9,25.2,14.2,45,33.8,59.5c19.6,14.5,44.1,21.8,73.5,21.8
	c27.8,0,49.8-6.4,66.2-19.1c16.3-12.7,24.5-29.9,24.5-51.5c0-17.6-4.8-30.7-14.5-39.2c-9.6-8.5-25.2-15.2-46.8-20.1l-76-17.6
	c-50.3-11.8-75.5-38.1-75.5-78.9c0-27.4,10.4-49.4,31.1-65.9c20.7-16.5,47.8-24.7,81.1-24.7c32,0,58.6,8,79.6,24
	s34.4,37.2,39.9,63.7l-24.5,5.9c-4.2-21.9-14.9-39.4-31.9-52.4c-17-13.1-38.4-19.6-64.2-19.6c-24.8,0-45.2,6.2-61,18.6
	c-15.8,12.4-23.8,29.1-23.8,50c0,16.7,5,29.3,14.9,38c10,8.7,24.4,15.1,43.4,19.4l72,17.2c11.4,2.3,21.5,5.2,30.1,8.8
	c8.7,3.6,17,8.5,25,14.7c8,6.2,14.2,14.1,18.6,23.8C1233.5,232.5,1235.7,243.7,1235.7,256.4z"/>
</svg>
