<svg viewBox="0 0 1440 350">
  <defs/>
  <path d="M295.7 322.1H375v22.5H191.3v-22.5h79.4V38.8h-79.4V16.3H375v22.5h-79.4v283.3zm306-17.7c23-15 39.4-35.4 49.2-61.2l24 5.9c-11.1 31-30.4 55.6-57.8 73.7s-59.5 27.2-96 27.2c-47.4 0-87.4-16.4-120.1-49.2s-49-72.9-49-120.3S368.4 93 401 60.2 473.7 11 521.1 11c36.6 0 68.6 9 96 27s46.7 42.1 57.8 72.5l-23.5 7.4c-9.5-25.8-25.8-46.2-49-61.3-23.2-15-50.3-22.5-81.3-22.5-40.5 0-74.7 14.1-102.7 42.4-27.9 28.3-41.9 63-41.9 104.1 0 41.2 14 75.9 41.9 104.1 27.9 28.3 62.1 42.4 102.7 42.4 30.7-.1 57.5-7.6 80.6-22.7zm325.8 0c23-15 39.4-35.4 49.2-61.2l24 5.9c-11.1 31-30.4 55.6-57.8 73.7s-59.5 27.2-96 27.2c-47.4 0-87.4-16.4-120.1-49.2s-49-72.9-49-120.3 16.3-87.5 49-120.3S799.5 11 846.9 11c36.6 0 68.6 9 96 27s46.7 42.1 57.8 72.5l-23.5 7.4c-9.5-25.8-25.8-46.2-49-61.3-23.2-15-50.3-22.5-81.3-22.5-40.5 0-74.7 14.1-102.7 42.4-27.9 28.3-41.9 63-41.9 104.1 0 41.2 14 75.9 41.9 104.1 27.9 28.3 62.1 42.4 102.7 42.4 30.7-.1 57.6-7.6 80.6-22.7zm275.9-269.5c21.1 16 34.4 37.2 39.9 63.7l-24.5 5.9c-4.2-21.9-14.9-39.4-31.9-52.4-17-13.1-38.4-19.6-64.2-19.6-24.8 0-45.2 6.2-61 18.6-15.8 12.4-23.8 29.1-23.8 50 0 16.7 5 29.3 14.9 38 10 8.7 24.4 15.1 43.4 19.4l72 17.2c11.4 2.3 21.5 5.2 30.1 8.8 8.7 3.6 17 8.5 25 14.7 8 6.2 14.2 14.1 18.6 23.8s6.6 20.8 6.6 33.6c0 28.4-10.7 51.1-32.1 68.1-21.4 17-49.7 25.5-85 25.5-35.9 0-66-8.7-90.2-26.2s-38.1-41.2-41.7-71.3l26.5-5.9c2.9 25.2 14.2 45 33.8 59.5 19.6 14.5 44.1 21.8 73.5 21.8 27.8 0 49.8-6.4 66.2-19.1 16.3-12.7 24.5-29.9 24.5-51.5 0-17.6-4.8-30.7-14.5-39.2-9.6-8.5-25.2-15.2-46.8-20.1l-76-17.6c-50.3-11.8-75.5-38.1-75.5-78.9 0-27.4 10.4-49.4 31.1-65.9 20.7-16.5 47.8-24.7 81.1-24.7 32.4-.2 58.9 7.8 80 23.8z"/>
</svg>
