<svg x="0px" y="0px" viewBox="0 0 1440 350">
<path d="M279,344.6h-22.1L25.1,57.8v286.8H0V15h22.1l232.2,288.8V15H279V344.6z M418.7,168H615v22.1H418.7V322h211.1v22.6H393.6V15
	h236.1v22.6H418.7V168z M1032.7,344.6h-25.1l-94-290.3l-94,290.3H795L690.7,15h26.1l91.5,291.3L901.8,15h24.1l93.5,291.3l91-291.3
	h26.1L1032.7,344.6z M1394.5,33.7c21.2,16.1,34.5,37.4,40.1,64l-24.6,5.9c-4.3-22-14.9-39.5-32-52.6c-17.1-13.1-38.5-19.7-64.4-19.7
	c-24.9,0-45.3,6.2-61.3,18.7c-15.9,12.5-23.9,29.2-23.9,50.2c0,16.7,5,29.4,15,38.1c10,8.7,24.5,15.2,43.5,19.4l72.3,17.2
	c11.5,2.3,21.6,5.2,30.3,8.9c8.7,3.6,17.1,8.5,25.1,14.8c8,6.2,14.3,14.2,18.7,23.9c4.4,9.7,6.6,20.9,6.6,33.7
	c0,28.5-10.7,51.3-32.2,68.4c-21.5,17.1-49.9,25.6-85.4,25.6c-36.1,0-66.3-8.8-90.5-26.3c-24.3-17.5-38.2-41.4-41.8-71.6l26.6-5.9
	c3,25.3,14.3,45.2,33.9,59.8c19.7,14.6,44.3,21.9,73.8,21.9c27.9,0,50-6.4,66.4-19.2c16.4-12.8,24.6-30,24.6-51.7
	c0-17.7-4.8-30.8-14.5-39.4s-25.3-15.3-47-20.2l-76.3-17.7c-50.5-11.8-75.8-38.2-75.8-79.2c0-27.6,10.4-49.6,31.2-66.2
	c20.8-16.6,48-24.8,81.4-24.8C1346.7,9.6,1373.3,17.6,1394.5,33.7z"/>
</svg>
