<svg viewBox="0 0 1440 340">
  <defs/>
  <path d="M153.5 28.6v306.1H128V28.6H0V6h281.5v22.6h-128zm395.8 21.3c32.4 32.9 48.6 73 48.6 120.4 0 47.7-16.2 88-48.6 120.7s-72.1 49-119.2 49c-47.4 0-87.3-16.3-119.7-49s-48.6-72.9-48.6-120.7c0-47.4 16.3-87.5 48.8-120.4C343.2 17 383.1.6 430.1.6S517 17 549.3 49.9zm-17.4 224.9c27.6-28.1 41.4-62.9 41.4-104.5 0-41.2-13.8-75.9-41.4-104.2-27.6-28.3-61.6-42.4-101.8-42.4-40.5 0-74.6 14.1-102.3 42.4-27.6 28.3-41.4 63-41.4 104.2 0 41.5 13.8 76.3 41.4 104.5 27.6 28.1 61.7 42.2 102.3 42.2 40.3-.1 74.2-14.1 101.8-42.2zM898 49.9c32.4 32.9 48.6 73 48.6 120.4 0 47.7-16.2 88-48.6 120.7-32.4 32.7-72.1 49-119.2 49-47.4 0-87.3-16.3-119.7-49-32.4-32.7-48.6-72.9-48.6-120.7 0-47.4 16.3-87.5 48.8-120.4C692 17 731.8.6 778.9.6c47 0 86.8 16.4 119.1 49.3zm-17.4 224.9c27.6-28.1 41.4-62.9 41.4-104.5 0-41.2-13.8-75.9-41.4-104.2-27.6-28.3-61.5-42.5-101.7-42.5-40.5 0-74.6 14.1-102.3 42.4-27.6 28.3-41.4 63-41.4 104.2 0 41.5 13.8 76.3 41.4 104.5 27.6 28.1 61.7 42.2 102.3 42.2 40.2 0 74.1-14 101.7-42.1zm318.1 59.8H975.5V6h25v306h198.2v22.6zm195.9-310c21.1 16 34.4 37.3 40 63.8l-24.5 5.9c-4.3-21.9-14.9-39.4-31.9-52.5-17-13.1-38.4-19.6-64.3-19.6-24.9 0-45.2 6.2-61.1 18.6-15.9 12.4-23.8 29.1-23.8 50 0 16.7 5 29.3 15 38s24.4 15.1 43.4 19.4l72.1 17.2c11.4 2.3 21.5 5.2 30.2 8.8 8.7 3.6 17 8.5 25 14.7 8 6.2 14.2 14.1 18.6 23.8 4.4 9.6 6.6 20.8 6.6 33.6 0 28.4-10.7 51.2-32.1 68.2-21.4 17-49.8 25.5-85.1 25.5-36 0-66.1-8.7-90.2-26.2s-38.1-41.3-41.7-71.4l26.5-5.9c2.9 25.2 14.2 45 33.8 59.6 19.6 14.6 44.1 21.8 73.6 21.8 27.8 0 49.9-6.4 66.2-19.1 16.3-12.8 24.5-29.9 24.5-51.5 0-17.7-4.8-30.7-14.5-39.2-9.6-8.5-25.3-15.2-46.8-20.1l-76-17.7c-50.4-11.8-75.5-38.1-75.5-79 0-27.5 10.4-49.5 31.1-66C1254.5 8.8 1281.5.5 1314.9.5c32.1.1 58.6 8.1 79.7 24.1z"/>
</svg>
