<?xml version="1.0" encoding="utf-8"?>
<!-- Generator: Adobe Illustrator 22.0.1, SVG Export Plug-In . SVG Version: 6.00 Build 0)  -->
<svg version="1.1" id="Capa_1" xmlns="http://www.w3.org/2000/svg" xmlns:xlink="http://www.w3.org/1999/xlink" x="0px" y="0px"
	 viewBox="0 0 1440 350" style="enable-background:new 0 0 1440 350;" xml:space="preserve">
<path d="M279.3,342.7L239.1,253H51.9l-40.7,89.7h-26.5L134.2,14.4h22.1l149.5,328.3H279.3z M145.5,45.8L62.2,230.5h166.6L145.5,45.8
	z M486,176.1c21.2,2.3,38.3,10.5,51.2,24.5c12.9,14,19.4,32,19.4,53.9c0,26.1-9,47.4-27,63.7c-18,16.3-42.3,24.5-73,24.5H301.3V14.4
	h146c30.7,0,54.7,7.7,72,23c17.3,15.4,26,35.8,26,61.3c0,20.3-5.7,37.4-17.2,51.5s-25.5,22.4-42.1,25V176.1z M326.3,166.8h126.4
	c20.6,0,37.2-6.2,50-18.6c12.7-12.4,19.1-28.6,19.1-48.5c0-19.3-6.8-34.7-20.3-46.3C487.9,41.7,469.2,36,445.4,36H326.3V166.8z
	 M454.7,321.1c23.2,0,41.8-6.3,55.9-18.9c14-12.6,21.1-29,21.1-49.2s-7.1-36.3-21.3-48c-14.2-11.8-32.9-17.6-56.1-17.6H326.3v133.8
	H454.7z M843.2,58.2c32.3,32.8,48.5,72.9,48.5,120.3c0,47.7-16.2,87.9-48.5,120.5s-72,49-119.1,49c-47.4,0-87.2-16.3-119.6-49
	s-48.5-72.8-48.5-120.5c0-47.4,16.3-87.5,48.8-120.3C637.4,25.4,677.1,9,724.2,9C771.2,9,810.9,25.4,843.2,58.2z M825.8,282.9
	c27.6-28.1,41.4-62.9,41.4-104.4c0-41.2-13.8-75.9-41.4-104.1C798.2,46.2,764.3,32,724.2,32c-40.5,0-74.6,14.1-102.2,42.4
	c-27.6,28.3-41.4,63-41.4,104.1c0,41.5,13.8,76.3,41.4,104.4c27.6,28.1,61.7,42.1,102.2,42.1C764.3,325.1,798.2,311,825.8,282.9z
	 M1176.4,201.1c0,44.1-12.3,79.6-37,106.6s-57.1,40.4-97.3,40.4c-40.8,0-73.7-13.5-98.5-40.4s-37.2-62.5-37.2-106.6V14.4h25v186.7
	c0,37.2,10.1,67.1,30.4,89.7s47,33.8,80.4,33.8c33,0,59.5-11.3,79.6-33.8c20.1-22.5,30.1-52.4,30.1-89.7V14.4h24.5V201.1z
	 M1327.3,36.9v305.8h-25.5V36.9H1174V14.4h281.3v22.5H1327.3z"/>
</svg>
