<svg viewBox="0 0 230 190">
<path fill="currentColor" d="M18.2,91.5c1.4-0.1,2.7-0.5,3.6-1c1-0.6,1.7-1.7,2.1-3.3l13-52c0.1-0.4,0.2-0.8,0.2-1.4c0-1-0.3-1.7-1-2.1
	c-0.7-0.4-1.6-0.6-2.8-0.8l-4.2-0.3l0.2-0.9h20.9L50,30.6l-4.4,0.3c-1.4,0.1-2.7,0.5-3.6,1c-1,0.6-1.7,1.7-2.1,3.3l-5.6,22.3h32.2
	l5.6-22.3c0.1-0.4,0.2-0.8,0.2-1.4c0-1-0.3-1.7-1-2.1c-0.7-0.4-1.6-0.6-2.8-0.8l-4.2-0.3l0.2-0.9h20.9l-0.2,0.9l-4.4,0.3
	c-1.4,0.1-2.7,0.5-3.6,1c-1,0.6-1.7,1.7-2.1,3.3l-13,52c-0.1,0.4-0.2,0.8-0.2,1.4c0,1,0.3,1.7,1,2.1c0.7,0.4,1.6,0.6,2.8,0.8
	l4.2,0.3l-0.2,0.9H48.7l0.2-0.9l4.4-0.3c1.4-0.1,2.7-0.5,3.6-1c1-0.6,1.7-1.7,2.1-3.3l7.1-28.6H34l-7.1,28.6
	c-0.1,0.4-0.2,0.8-0.2,1.4c0,1,0.3,1.7,1,2.1c0.7,0.4,1.6,0.6,2.8,0.8l4.2,0.3l-0.2,0.9H13.6l0.2-0.9L18.2,91.5z M76,91.5
	c1.4-0.1,2.7-0.5,3.6-1c1-0.6,1.7-1.7,2.1-3.3l13-52c0.1-0.4,0.2-0.8,0.2-1.4c0-1-0.3-1.7-1-2.1c-0.7-0.4-1.6-0.6-2.8-0.8l-4.2-0.3
	l0.2-0.9h38.2l-0.9,12h-0.9c0.1-3.1,0-5.4-0.4-7c-0.4-1.5-1.1-2.6-2.2-3.1c-1.1-0.5-2.8-0.8-5.1-0.8h-17L92,57.6h16.8
	c1.1,0,2.2-0.4,3.2-1.1c1-0.7,1.7-1.7,2.1-2.8l1.3-4.1h0.9l-4.2,17.1h-0.9l0.7-4.1c0.2-1.1-0.1-2.1-0.7-2.8
	c-0.7-0.7-1.6-1.1-2.7-1.1H91.8l-7.1,28.6c-0.1,0.4-0.2,0.8-0.2,1.4c0,2,1.3,3,3.8,3l13.8,0.1c2.4,0,4.3-0.3,5.8-0.9
	c1.5-0.6,2.9-1.8,4.3-3.6c1.4-1.8,2.9-4.6,4.7-8.5h0.9l-5.7,14H71.4l0.2-0.9L76,91.5z M120.5,91.5c1.5-0.1,2.7-0.5,3.7-1
	c1-0.6,1.7-1.7,2.1-3.3l13-52c0.2-0.7,0.3-1.4,0.3-1.9c0-0.9-0.3-1.5-0.8-1.8c-0.5-0.3-1.3-0.5-2.3-0.6l-5-0.3l0.2-0.9h20.9
	l-0.2,0.9l-5.1,0.3c-1.3,0.1-2.4,0.4-3.2,0.9c-0.8,0.6-1.4,1.7-1.8,3.4l-13,52c-0.2,0.6-0.3,1.2-0.3,1.7c0,1.1,0.6,1.9,1.7,2.2
	c1.1,0.4,3.2,0.5,6.2,0.5c5.3,0,9.3-0.4,12-1.3c2.7-0.9,4.7-2.1,6-3.8c1.3-1.7,2.7-4.3,4.3-7.8h0.9l-5.8,14H116l0.2-0.9L120.5,91.5z
	 M162.9,91.5c1.4-0.1,2.7-0.5,3.6-1c1-0.6,1.7-1.7,2.1-3.3l13-52c0.1-0.4,0.2-0.8,0.2-1.4c0-1-0.3-1.7-1-2.1
	c-0.7-0.4-1.6-0.6-2.8-0.8l-4.2-0.3l0.2-0.9h23.8c3.4,0,6.4,0.6,8.9,1.8c2.5,1.2,4.4,2.8,5.6,4.8c1.3,2,1.9,4,1.9,6.3
	c0,0.6-0.1,1.5-0.4,2.7c-1,3.8-3.4,6.9-7.2,9.5c-3.8,2.5-8.6,3.8-14.4,3.8h-13.5l-7.1,28.7c-0.1,0.4-0.2,0.8-0.2,1.4
	c0,1,0.3,1.7,1,2.1c0.7,0.4,1.6,0.6,2.8,0.8l4.2,0.3l-0.2,0.9h-20.9l0.2-0.9L162.9,91.5z M204.4,54.2c3.1-2.2,5.2-5.1,6.1-8.9
	c0.3-1.2,0.4-2.3,0.4-3.2c0-3.2-1.2-5.9-3.6-8.1c-2.4-2.2-5.8-3.2-10.1-3.2h-11.6l-6.8,26.7h13.4C197.2,57.4,201.2,56.3,204.4,54.2z
	 M26.6,164.9c-0.5-0.5-0.7-1-0.7-1.7c0-1,0.4-1.9,1.3-2.7c0.8-0.8,1.8-1.2,2.8-1.2c0.7,0,1.3,0.2,1.8,0.7c0.5,0.5,0.7,1,0.7,1.7
	c0,1-0.4,1.9-1.3,2.7c-0.8,0.8-1.8,1.2-2.8,1.2C27.6,165.6,27,165.4,26.6,164.9z M34.4,140.2c1.2-2.5,2.4-4.6,3.7-6.3
	c1.3-1.7,2.9-3.6,4.9-5.7c2.3-2.4,4.1-4.5,5.4-6.4c1.3-1.9,2.3-4.2,3-7c0.5-2,0.7-3.7,0.7-5c0-2.6-0.7-4.6-2.1-6
	c-1.4-1.4-3.1-2-5.2-2c-3,0-5.5,1.1-7.5,3.3c-2,2.2-3.4,5.4-4.2,9.8c-0.2,1-0.5,1.8-1,2.5c-0.5,0.7-1.2,1-2,1c-0.6,0-1-0.3-1.3-0.8
	c-0.2-0.5-0.3-1.1-0.2-1.8c0.4-2.5,1.5-4.8,3.2-7.2c1.7-2.3,3.7-4.2,6.2-5.6c2.4-1.4,4.9-2.1,7.3-2.1c2.9,0,5.3,0.9,7.3,2.7
	c2,1.8,3,4.3,3,7.5c0,1.4-0.2,2.6-0.4,3.7c-0.8,3.4-2.1,6.2-3.7,8.3c-1.7,2.1-3.9,4.5-6.9,7.2c-3.2,2.8-5.7,5.5-7.7,8.2
	c-1.9,2.6-3.4,6.2-4.4,10.5h-0.8C32.3,145.7,33.2,142.7,34.4,140.2z M60.1,164.9c-0.5-0.5-0.7-1-0.7-1.7c0-1,0.4-1.9,1.3-2.7
	c0.8-0.8,1.8-1.2,2.8-1.2c0.7,0,1.3,0.2,1.8,0.7c0.5,0.5,0.7,1,0.7,1.7c0,1-0.4,1.9-1.3,2.7c-0.8,0.8-1.8,1.2-2.8,1.2
	C61.2,165.6,60.6,165.4,60.1,164.9z M68,140.2c1.2-2.5,2.4-4.6,3.7-6.3c1.3-1.7,2.9-3.6,4.9-5.7c2.3-2.4,4.1-4.5,5.4-6.4
	c1.3-1.9,2.3-4.2,3-7c0.5-2,0.7-3.7,0.7-5c0-2.6-0.7-4.6-2.1-6c-1.4-1.4-3.1-2-5.2-2c-3,0-5.5,1.1-7.5,3.3c-2,2.2-3.4,5.4-4.2,9.8
	c-0.2,1-0.5,1.8-1,2.5c-0.5,0.7-1.2,1-2,1c-0.6,0-1-0.3-1.3-0.8c-0.2-0.5-0.3-1.1-0.2-1.8c0.4-2.5,1.5-4.8,3.2-7.2
	c1.7-2.3,3.7-4.2,6.2-5.6c2.4-1.4,4.9-2.1,7.3-2.1c2.9,0,5.3,0.9,7.3,2.7c2,1.8,3,4.3,3,7.5c0,1.4-0.2,2.6-0.4,3.7
	c-0.8,3.4-2.1,6.2-3.7,8.3c-1.7,2.1-3.9,4.5-6.9,7.2c-3.2,2.8-5.7,5.5-7.7,8.2c-1.9,2.6-3.4,6.2-4.4,10.5h-0.8
	C65.9,145.7,66.8,142.7,68,140.2z M93.7,164.9c-0.5-0.5-0.7-1-0.7-1.7c0-1,0.4-1.9,1.3-2.7c0.8-0.8,1.8-1.2,2.8-1.2
	c0.7,0,1.3,0.2,1.8,0.7c0.5,0.5,0.7,1,0.7,1.7c0,1-0.4,1.9-1.3,2.7c-0.8,0.8-1.8,1.2-2.8,1.2C94.7,165.6,94.1,165.4,93.7,164.9z
	 M101.5,140.2c1.2-2.5,2.4-4.6,3.7-6.3c1.3-1.7,2.9-3.6,4.9-5.7c2.3-2.4,4.1-4.5,5.4-6.4c1.3-1.9,2.3-4.2,3-7c0.5-2,0.7-3.7,0.7-5
	c0-2.6-0.7-4.6-2.1-6c-1.4-1.4-3.1-2-5.2-2c-3,0-5.5,1.1-7.5,3.3c-2,2.2-3.4,5.4-4.2,9.8c-0.2,1-0.5,1.8-1,2.5c-0.5,0.7-1.2,1-2,1
	c-0.6,0-1-0.3-1.3-0.8c-0.2-0.5-0.3-1.1-0.2-1.8c0.4-2.5,1.5-4.8,3.2-7.2c1.7-2.3,3.7-4.2,6.2-5.6c2.4-1.4,4.9-2.1,7.3-2.1
	c2.9,0,5.3,0.9,7.3,2.7c2,1.8,3,4.3,3,7.5c0,1.4-0.2,2.6-0.4,3.7c-0.8,3.4-2.1,6.2-3.7,8.3c-1.7,2.1-3.9,4.5-6.9,7.2
	c-3.2,2.8-5.7,5.5-7.7,8.2c-1.9,2.6-3.4,6.2-4.4,10.5h-0.8C99.4,145.7,100.4,142.7,101.5,140.2z M127.3,164.9
	c-0.5-0.5-0.7-1-0.7-1.7c0-1,0.4-1.9,1.3-2.7c0.8-0.8,1.8-1.2,2.8-1.2c0.7,0,1.3,0.2,1.8,0.7c0.5,0.5,0.7,1,0.7,1.7
	c0,1-0.4,1.9-1.3,2.7c-0.8,0.8-1.8,1.2-2.8,1.2C128.3,165.6,127.7,165.4,127.3,164.9z M135.1,140.2c1.2-2.5,2.4-4.6,3.7-6.3
	c1.3-1.7,2.9-3.6,4.9-5.7c2.3-2.4,4.1-4.5,5.4-6.4c1.3-1.9,2.3-4.2,3-7c0.5-2,0.7-3.7,0.7-5c0-2.6-0.7-4.6-2.1-6
	c-1.4-1.4-3.1-2-5.2-2c-3,0-5.5,1.1-7.5,3.3c-2,2.2-3.4,5.4-4.2,9.8c-0.2,1-0.5,1.8-1,2.5c-0.5,0.7-1.2,1-2,1c-0.6,0-1-0.3-1.3-0.8
	c-0.2-0.5-0.3-1.1-0.2-1.8c0.4-2.5,1.5-4.8,3.2-7.2c1.7-2.3,3.7-4.2,6.2-5.6c2.4-1.4,4.9-2.1,7.3-2.1c2.9,0,5.3,0.9,7.3,2.7
	c2,1.8,3,4.3,3,7.5c0,1.4-0.2,2.6-0.4,3.7c-0.8,3.4-2.1,6.2-3.7,8.3c-1.7,2.1-3.9,4.5-6.9,7.2c-3.2,2.8-5.7,5.5-7.7,8.2
	c-1.9,2.6-3.4,6.2-4.4,10.5h-0.8C133,145.7,133.9,142.7,135.1,140.2z"/>
<path vector-effect="non-scaling-stroke" stroke="currentColor" fill="none" stroke-width="1px" class="oval" d="M224.8,63.6c0,33.8-49.2,61.2-109.8,61.2S5.2,97.5,5.2,63.6S54.4,2.4,115,2.4S224.8,29.8,224.8,63.6z"/>
</svg>
