<?xml version="1.0" encoding="UTF-8"?><!DOCTYPE svg PUBLIC "-//W3C//DTD SVG 1.1//EN" "http://www.w3.org/Graphics/SVG/1.1/DTD/svg11.dtd"><svg xmlns="http://www.w3.org/2000/svg" xmlns:xlink="http://www.w3.org/1999/xlink"><symbol id="icon_adm_finanzas" viewBox="0 0 200 200"><path d="M10 190l90-90-90-90v180zm90-180v180c49.706 0 90-40.294 90-90s-40.294-90-90-90z" vector-effect="non-scaling-stroke"/></symbol><symbol id="icon_empresa" viewBox="0 0 200 200"><path d="M10 190h180l-90-90-90 90zm90-180c-49.706 0-90 40.294-90 90h180c0-49.706-40.294-90-90-90z" vector-effect="non-scaling-stroke"/></symbol><symbol id="icon_entorno" viewBox="0 0 200 200"><path d="M100 10c-49.706 0-90 40.294-90 90s40.294 90 90 90 90-40.294 90-90-40.294-90-90-90zm40 130H60V60h80v80z" vector-effect="non-scaling-stroke"/></symbol><symbol id="icon_internacionalizacion" viewBox="0 0 200 200"><circle cx="100" cy="100" r="90" vector-effect="non-scaling-stroke"/></symbol><symbol id="icon_marketing" viewBox="0 0 200 200"><path d="M190 100l-45.031-45-44.906 44.875V10C50.322 10 10 50.294 10 100s40.322 90 90.063 90v-89.875L144.969 145 190 100z" vector-effect="non-scaling-stroke"/></symbol><symbol id="icon_negocio" viewBox="0 0 200 200"><path d="M139.886 100v30H60.113v-30H10c0 49.706 40.294 90 90 90s90-40.294 90-90h-50.114zm-68.17-21.716c15.621 15.621 40.948 15.621 56.568 0 15.621-15.621 15.621-40.948 0-56.568-15.621-15.621-40.948-15.621-56.568 0-15.621 15.621-15.621 40.947 0 56.568z" vector-effect="non-scaling-stroke"/></symbol><symbol id="icon_prop_intelectual" viewBox="0 0 200 200"><path d="M100.114 55V10c-49.706 0-90 40.294-90 90s40.294 90 90 90v-45l-45-45 45-45zM145 55c-24.853 0-45 20.147-45 45s20.147 45 45 45 45-20.147 45-45-20.147-45-45-45z" vector-effect="non-scaling-stroke"/></symbol></svg>